<svg width="990" height="600" viewBox="0 0 990 600" fill="none" xmlns="http://www.w3.org/2000/svg">
<path d="M495 599.978C768.381 599.978 990 587.09 990 571.193C990 555.295 768.381 542.407 495 542.407C221.619 542.407 0 555.295 0 571.193C0 587.09 221.619 599.978 495 599.978Z" fill="#EDF5FF" fill-opacity="0.5"/>
<path d="M495.669 517.713C480.351 527.045 333.12 593.77 469.271 593.77H655.844C655.844 593.77 596.078 583.828 620.331 564.96C539.07 513.899 495.669 517.713 495.669 517.713Z" fill="#0075FF"/>
<path opacity="0.6" d="M495.669 517.713C480.351 527.045 333.12 593.77 469.271 593.77H655.844C655.844 593.77 596.078 583.828 620.331 564.96C539.07 513.899 495.669 517.713 495.669 517.713Z" fill="white"/>
<path opacity="0.8" d="M504.172 599.95H503.994C471.928 597.839 455.257 590.719 452.934 578.208C448.849 554.941 499.73 524.808 514.512 518.374C514.82 518.241 515.152 518.169 515.489 518.163C515.825 518.157 516.159 518.217 516.472 518.34C516.785 518.463 517.07 518.646 517.312 518.879C517.554 519.111 517.748 519.389 517.882 519.696C518.016 520.004 518.088 520.334 518.094 520.669C518.1 521.004 518.039 521.337 517.916 521.649C517.793 521.96 517.609 522.245 517.375 522.486C517.142 522.727 516.863 522.919 516.554 523.053C497.637 531.317 454.874 559.747 457.835 577.318C459.52 586.93 475.528 592.982 504.096 594.889C504.773 594.913 505.413 595.203 505.875 595.697C506.337 596.191 506.583 596.847 506.559 597.521C506.536 598.196 506.244 598.833 505.748 599.293C505.253 599.753 504.594 599.999 503.917 599.975L504.172 599.95Z" fill="white"/>
<path d="M616.068 599.949C563.323 599.161 552.243 584.311 552.396 571.978C552.396 554.457 576.701 535.589 593.678 535.513C594.355 535.513 595.004 535.781 595.483 536.258C595.962 536.734 596.231 537.381 596.231 538.056C596.231 538.73 595.962 539.377 595.483 539.854C595.004 540.331 594.355 540.598 593.678 540.598C579.458 540.598 557.553 557.509 557.477 572.028C557.477 585.989 578.769 594.304 616.195 594.914C616.873 594.914 617.522 595.182 618.001 595.659C618.479 596.136 618.748 596.783 618.748 597.457C618.748 598.132 618.479 598.778 618.001 599.255C617.522 599.732 616.873 600 616.195 600L616.068 599.949Z" fill="#0075FF"/>
<path opacity="0.8" d="M616.068 599.949C563.323 599.161 552.243 584.311 552.396 571.978C552.396 554.457 576.701 535.589 593.678 535.513C594.355 535.513 595.004 535.781 595.483 536.258C595.962 536.734 596.231 537.381 596.231 538.056C596.231 538.73 595.962 539.377 595.483 539.854C595.004 540.331 594.355 540.598 593.678 540.598C579.458 540.598 557.553 557.509 557.477 572.028C557.477 585.989 578.769 594.304 616.195 594.914C616.873 594.914 617.522 595.182 618.001 595.659C618.479 596.136 618.748 596.783 618.748 597.457C618.748 598.132 618.479 598.778 618.001 599.255C617.522 599.732 616.873 600 616.195 600L616.068 599.949Z" fill="white"/>
<path d="M631.566 550.847L628.043 569.969C627.933 570.541 627.697 571.082 627.355 571.554C627.012 572.026 626.569 572.417 626.058 572.7C625.548 572.984 624.981 573.153 624.397 573.195C623.814 573.237 623.229 573.151 622.682 572.944L488.42 521.451C487.874 521.243 487.382 520.917 486.977 520.497C486.573 520.077 486.267 519.573 486.082 519.021C485.896 518.469 485.836 517.883 485.905 517.305C485.973 516.727 486.17 516.172 486.48 515.679L496.692 499.124C497.923 497.135 499.816 495.638 502.041 494.895C504.266 494.151 506.682 494.208 508.87 495.056L625.286 539.76C627.461 540.596 629.276 542.16 630.421 544.182C631.567 546.204 631.972 548.56 631.566 550.847V550.847Z" fill="#0075FF"/>
<path d="M872.867 20.6552L838.657 75.0982C838 76.1357 836.958 76.8728 835.758 77.149C834.558 77.4252 833.297 77.2182 832.249 76.5731V76.5731C831.209 75.9232 830.47 74.8898 830.192 73.6987C829.915 72.5075 830.122 71.2554 830.769 70.2159L864.928 15.7729C865.58 14.7371 866.618 14.0006 867.813 13.7242C869.009 13.4479 870.266 13.6542 871.31 14.298C872.363 14.9355 873.118 15.9633 873.41 17.1555C873.702 18.3476 873.507 19.6065 872.867 20.6552Z" fill="#0075FF"/>
<path d="M887.386 0.941087C886.697 0.51075 885.93 0.219979 885.129 0.0854815C884.327 -0.049016 883.507 -0.0245947 882.714 0.157302C881.922 0.339199 881.174 0.674999 880.512 1.14549C879.851 1.61598 879.289 2.21193 878.859 2.89911L567.13 499.837L555.897 495.514C552.322 494.141 547.906 495.768 544.306 499.76L536.188 508.788L595.774 531.674V519.544C595.774 514.204 593.604 510.034 590.03 508.66L578.822 504.363L889.403 9.43429C890.264 8.04108 890.535 6.36456 890.157 4.7724C889.779 3.18023 888.782 1.8024 887.386 0.941087Z" fill="#0075FF"/>
<path opacity="0.3" d="M887.386 0.941087C886.697 0.51075 885.93 0.219979 885.129 0.0854815C884.327 -0.049016 883.507 -0.0245947 882.714 0.157302C881.922 0.339199 881.174 0.674999 880.512 1.14549C879.851 1.61598 879.289 2.21193 878.859 2.89911L567.13 499.837L555.897 495.514C552.322 494.141 547.906 495.768 544.306 499.76L536.188 508.788L595.774 531.674V519.544C595.774 514.204 593.604 510.034 590.03 508.66L578.822 504.363L889.403 9.43429C890.264 8.04108 890.535 6.36456 890.157 4.7724C889.779 3.18023 888.782 1.8024 887.386 0.941087Z" fill="white"/>
<path opacity="0.5" d="M675.595 326.46L620.222 414.725C619.46 415.94 619.831 417.54 621.05 418.299L627.307 422.194C628.527 422.953 630.133 422.583 630.895 421.368L686.269 333.104C687.031 331.889 686.66 330.289 685.44 329.53L679.183 325.635C677.964 324.876 676.357 325.246 675.595 326.46Z" fill="white"/>
<path d="M510.988 550.618C477.569 543.93 438.253 519.01 423.344 495.031L425.514 493.708C439.862 516.747 479.127 541.667 511.473 548.126L510.988 550.618Z" fill="#0075FF"/>
<path d="M647.502 572.563L647.195 570.02C661.824 568.138 694.579 557.305 710.535 547.693L711.863 549.88C695.651 559.619 662.386 570.656 647.502 572.563Z" fill="#0075FF"/>
<path d="M421.633 530.835C407.888 520.747 396.09 508.263 386.811 493.988L389.006 492.666C398.041 506.656 409.565 518.885 423.012 528.749L421.633 530.835Z" fill="#0075FF"/>
<path d="M679.743 552.474L678.799 550.109C688.327 546.081 697.046 540.369 704.533 533.25L706.32 535.055C698.614 542.443 689.604 548.348 679.743 552.474V552.474Z" fill="#0075FF"/>
<path d="M736.078 418.312C739.06 418.316 741.992 419.074 744.6 420.515C747.208 421.956 749.406 424.033 750.987 426.551C752.732 425.088 754.86 424.15 757.121 423.849C759.382 423.547 761.682 423.893 763.752 424.847C766.534 421.666 770.249 419.436 774.372 418.473C778.495 417.51 782.818 417.863 786.729 419.482C790.715 413.829 796.405 409.588 802.975 407.375C809.544 405.161 816.65 405.09 823.263 407.172C829.875 409.254 835.65 413.38 839.749 418.952C843.847 424.524 846.057 431.252 846.057 438.159C846.057 445.067 843.847 451.794 839.749 457.366C835.65 462.938 829.875 467.064 823.263 469.146C816.65 471.228 809.544 471.157 802.975 468.943C796.405 466.73 790.715 462.489 786.729 456.837C784.3 457.833 781.697 458.343 779.07 458.337C775.406 458.351 771.807 457.371 768.659 455.503C765.51 453.635 762.932 450.949 761.199 447.733C760.361 447.916 759.504 448.001 758.646 447.987C755.839 447.954 753.13 446.947 750.987 445.139C749.362 447.722 747.088 449.837 744.39 451.277C741.692 452.716 738.664 453.429 735.605 453.346C732.546 453.263 729.562 452.387 726.947 450.803C724.332 449.22 722.177 446.984 720.695 444.318C719.213 441.651 718.455 438.645 718.496 435.597C718.537 432.549 719.376 429.565 720.929 426.938C722.483 424.312 724.697 422.135 727.354 420.622C730.011 419.109 733.018 418.313 736.078 418.312V418.312Z" fill="#0075FF"/>
<path opacity="0.9" d="M736.078 418.312C739.06 418.316 741.992 419.074 744.6 420.515C747.208 421.956 749.406 424.033 750.987 426.551C752.732 425.088 754.86 424.15 757.121 423.849C759.382 423.547 761.682 423.893 763.752 424.847C766.534 421.666 770.249 419.436 774.372 418.473C778.495 417.51 782.818 417.863 786.729 419.482C790.715 413.829 796.405 409.588 802.975 407.375C809.544 405.161 816.65 405.09 823.263 407.172C829.875 409.254 835.65 413.38 839.749 418.952C843.847 424.524 846.057 431.252 846.057 438.159C846.057 445.067 843.847 451.794 839.749 457.366C835.65 462.938 829.875 467.064 823.263 469.146C816.65 471.228 809.544 471.157 802.975 468.943C796.405 466.73 790.715 462.489 786.729 456.837C784.3 457.833 781.697 458.343 779.07 458.337C775.406 458.351 771.807 457.371 768.659 455.503C765.51 453.635 762.932 450.949 761.199 447.733C760.361 447.916 759.504 448.001 758.646 447.987C755.839 447.954 753.13 446.947 750.987 445.139C749.362 447.722 747.088 449.837 744.39 451.277C741.692 452.716 738.664 453.429 735.605 453.346C732.546 453.263 729.562 452.387 726.947 450.803C724.332 449.22 722.177 446.984 720.695 444.318C719.213 441.651 718.455 438.645 718.496 435.597C718.537 432.549 719.376 429.565 720.929 426.938C722.483 424.312 724.697 422.135 727.354 420.622C730.011 419.109 733.018 418.313 736.078 418.312V418.312Z" fill="white"/>
<path d="M720.759 449.792H843.66C844.589 449.795 845.507 449.995 846.352 450.38C847.197 450.765 847.949 451.325 848.559 452.024C849.168 452.722 849.621 453.543 849.885 454.43C850.15 455.317 850.221 456.25 850.093 457.167L831.252 588.227C831.031 589.764 830.262 591.17 829.085 592.188C827.909 593.206 826.403 593.768 824.844 593.77H739.574C738.016 593.768 736.51 593.206 735.333 592.188C734.156 591.17 733.387 589.764 733.166 588.227L714.351 457.167C714.219 456.252 714.286 455.319 714.548 454.432C714.809 453.544 715.259 452.724 715.867 452.024C716.474 451.325 717.225 450.764 718.069 450.379C718.913 449.994 719.83 449.794 720.759 449.792V449.792Z" fill="#0075FF"/>
<path opacity="0.6" d="M720.759 449.792H843.66C844.589 449.795 845.507 449.995 846.352 450.38C847.197 450.765 847.949 451.325 848.559 452.024C849.168 452.722 849.621 453.543 849.885 454.43C850.15 455.317 850.221 456.25 850.093 457.167L831.252 588.227C831.031 589.764 830.262 591.17 829.085 592.188C827.909 593.206 826.403 593.768 824.844 593.77H739.574C738.016 593.768 736.51 593.206 735.333 592.188C734.156 591.17 733.387 589.764 733.166 588.227L714.351 457.167C714.219 456.252 714.286 455.319 714.548 454.432C714.809 453.544 715.259 452.724 715.867 452.024C716.474 451.325 717.225 450.764 718.069 450.379C718.913 449.994 719.83 449.794 720.759 449.792V449.792Z" fill="white"/>
<path d="M717.055 456.277H847.564C849.289 456.27 850.941 455.585 852.16 454.37C853.379 453.156 854.068 451.51 854.074 449.792V449.792C854.074 448.07 853.389 446.418 852.169 445.198C850.949 443.978 849.293 443.289 847.564 443.283H717.055C715.326 443.289 713.67 443.978 712.45 445.198C711.23 446.418 710.545 448.07 710.545 449.792C710.552 451.51 711.24 453.156 712.459 454.37C713.679 455.585 715.33 456.27 717.055 456.277V456.277Z" fill="#05C168"/>
<path d="M813.992 513.823C779.91 513.823 740.466 486.258 726.042 452.361C725.776 452.059 725.587 451.697 725.489 451.307C725.391 450.917 725.387 450.51 725.477 450.118C725.568 449.726 725.751 449.362 726.01 449.054C726.27 448.746 726.599 448.504 726.971 448.347C727.343 448.191 727.746 448.124 728.149 448.153C728.551 448.182 728.941 448.306 729.287 448.514C729.632 448.722 729.923 449.008 730.135 449.35C730.348 449.692 730.476 450.079 730.509 450.48C744.245 482.723 781.697 508.966 813.992 508.966C828.315 508.966 839.675 503.728 846.007 494.217C853.079 483.563 853.257 468.331 846.466 452.361C846.201 452.059 846.011 451.697 845.913 451.307C845.815 450.917 845.811 450.51 845.902 450.118C845.993 449.726 846.175 449.362 846.435 449.054C846.695 448.746 847.024 448.504 847.396 448.347C847.767 448.191 848.171 448.124 848.574 448.153C848.976 448.182 849.366 448.306 849.711 448.514C850.057 448.722 850.348 449.008 850.56 449.35C850.773 449.692 850.901 450.079 850.934 450.48C858.363 467.949 858.057 484.859 850.066 496.887C842.816 507.796 830 513.823 813.992 513.823Z" fill="#0075FF"/>
<path d="M808.424 516.873L833.111 514.33C834.807 514.102 836.377 513.314 837.571 512.092C838.765 510.871 839.514 509.287 839.698 507.592C839.785 506.842 839.698 506.081 839.442 505.37C839.186 504.659 838.769 504.017 838.223 503.493C837.677 502.969 837.017 502.577 836.294 502.349C835.571 502.12 834.805 502.061 834.056 502.175L809.343 504.718C807.647 504.947 806.077 505.735 804.883 506.956C803.689 508.178 802.94 509.762 802.756 511.457V511.457C802.673 512.209 802.765 512.969 803.024 513.68C803.283 514.391 803.703 515.032 804.25 515.556C804.798 516.079 805.459 516.47 806.183 516.699C806.907 516.927 807.673 516.987 808.424 516.873V516.873Z" fill="#263238"/>
<path d="M303.075 424.143C292.459 436.619 281.353 459.812 277.321 500.789C273.83 535.824 270.594 584.634 297.603 584.971L369.76 585.792C397.272 586.14 391.037 523.127 363.891 503.512C333.003 481.237 366.152 464.01 357.361 448.191C350.849 437.864 341.631 429.502 330.701 424.006L303.075 424.143Z" fill="#86BEFF"/>
<path d="M375.449 534.455C375.292 533.95 375.66 534.885 375.449 534.455Z" fill="#0075FF"/>
<path d="M377.995 570.416C380.02 562.967 380.304 555.154 378.825 547.579C378.156 543.454 376.404 539.579 373.748 536.345C371.092 533.11 367.626 530.632 363.7 529.16C354.498 525.605 344.893 523.187 335.1 521.961C308.566 518.683 287.202 493.892 284.975 503.289C284.862 504.339 284.749 505.389 284.686 506.53C282.776 526.302 280.096 562.522 290.374 573.959C291.281 575.002 292.411 575.829 293.681 576.38C294.951 576.931 296.329 577.193 297.713 577.145L369.816 578.042C371.361 578.101 375.432 578.112 377.995 570.416Z" fill="#0075FF"/>
<path d="M327.937 417.975L302.644 417.571C299.819 417.525 297.493 419.769 297.448 422.583L297.312 430.965C297.267 433.778 299.52 436.095 302.345 436.141L327.637 436.545C330.462 436.59 332.788 434.346 332.834 431.533L332.969 423.151C333.014 420.338 330.761 418.02 327.937 417.975Z" fill="#263238"/>
<path d="M350.292 371.506C349.356 381.452 349.797 391.48 351.604 401.306C352.251 404.746 348.8 407.649 346.211 405.848C344.025 404.328 342.206 402.343 340.884 400.038C339.561 397.733 338.769 395.164 338.563 392.517C334.89 394.363 329.973 389.42 329.973 389.42C329.973 389.42 341.54 359.833 350.292 371.506Z" fill="#263238"/>
<path d="M289.13 373.988C289.13 373.988 304.703 384.82 305.597 411.903C305.589 412.342 305.671 412.777 305.838 413.184C306.004 413.59 306.252 413.958 306.566 414.266C306.88 414.574 307.253 414.815 307.663 414.975C308.074 415.135 308.512 415.21 308.953 415.196L326.804 415.426C327.564 415.437 328.302 415.179 328.889 414.698C329.475 414.217 329.87 413.545 330.005 412.8C331.703 403.43 338.741 372.95 353.618 373.142L365.918 373.291C368.577 373.322 371.14 372.3 373.043 370.45C374.946 368.599 376.033 366.072 376.066 363.423C376.096 360.775 375.07 358.222 373.212 356.327C371.355 354.432 368.817 353.349 366.158 353.316L317.047 352.67C298.617 352.376 289.438 357.389 289.13 373.988Z" fill="#05C168"/>
<path d="M363.16 351.75L361.674 351.732C360.674 351.719 359.852 352.516 359.84 353.513L359.595 372.708C359.582 373.704 360.383 374.522 361.383 374.535L362.869 374.554C363.869 374.566 364.69 373.769 364.703 372.773L364.948 353.577C364.961 352.581 364.16 351.763 363.16 351.75Z" fill="#263238"/>
</svg>
