<svg width="200" height="28" viewBox="0 0 200 28" fill="none" xmlns="http://www.w3.org/2000/svg">
<path d="M14.4219 23.3579L21.629 27.7765C22.7658 28.4728 24.1691 27.4366 23.8672 26.124L21.9553 17.7925L28.322 12.1857C29.3283 11.3042 28.7898 9.62957 27.4681 9.51351L19.0834 8.79227L15.8035 0.930556C15.2867 -0.310186 13.557 -0.310186 13.0403 0.930556L9.7604 8.79227L1.3757 9.51351C0.0539491 9.62957 -0.484542 11.3042 0.521729 12.1857L6.88844 17.7925L4.97652 26.124C4.67464 27.4366 6.07798 28.4728 7.2148 27.7765L14.4219 23.3579Z" fill="#FFCA0E"/>
<path d="M57.2109 23.3579L64.418 27.7765C65.5548 28.4728 66.9582 27.4366 66.6563 26.124L64.7444 17.7925L71.1111 12.1857C72.1174 11.3042 71.5789 9.62957 70.2571 9.51351L61.8724 8.79227L58.5925 0.930556C58.0758 -0.310186 56.3461 -0.310186 55.8294 0.930556L52.5495 8.79227L44.1648 9.51351C42.843 9.62957 42.3045 11.3042 43.3108 12.1857L49.6775 17.7925L47.7656 26.124C47.4637 27.4366 48.867 28.4728 50.0039 27.7765L57.2109 23.3579Z" fill="#FFCA0E"/>
<path d="M100 23.3579L107.207 27.7765C108.344 28.4728 109.747 27.4366 109.445 26.124L107.533 17.7925L113.9 12.1857C114.906 11.3042 114.368 9.62957 113.046 9.51351L104.661 8.79227L101.382 0.930556C100.865 -0.310186 99.1352 -0.310186 98.6184 0.930556L95.3385 8.79227L86.9538 9.51351C85.6321 9.62957 85.0936 11.3042 86.0999 12.1857L92.4666 17.7925L90.5546 26.124C90.2528 27.4366 91.6561 28.4728 92.7929 27.7765L100 23.3579Z" fill="#FFCA0E"/>
<path d="M142.789 23.3579L149.996 27.7765C151.133 28.4728 152.536 27.4366 152.234 26.124L150.323 17.7925L156.689 12.1857C157.695 11.3042 157.157 9.62957 155.835 9.51351L147.451 8.79227L144.171 0.930556C143.654 -0.310186 141.924 -0.310186 141.407 0.930556L138.128 8.79227L129.743 9.51351C128.421 9.62957 127.883 11.3042 128.889 12.1857L135.256 17.7925L133.344 26.124C133.042 27.4366 134.445 28.4728 135.582 27.7765L142.789 23.3579Z" fill="#FFCA0E"/>
<path d="M185.578 23.3579L192.785 27.7765C193.922 28.4728 195.325 27.4366 195.023 26.124L193.112 17.7925L199.478 12.1857C200.485 11.3042 199.946 9.62957 198.624 9.51351L190.24 8.79227L186.96 0.930556C186.443 -0.310186 184.713 -0.310186 184.197 0.930556L180.917 8.79227L172.532 9.51351C171.21 9.62957 170.672 11.3042 171.678 12.1857L178.045 17.7925L176.133 26.124C175.831 27.4366 177.234 28.4728 178.371 27.7765L185.578 23.3579Z" fill="#FFCA0E"/>
</svg>
