<svg width="64" height="65" viewBox="0 0 64 65" fill="none" xmlns="http://www.w3.org/2000/svg">
<mask id="mask0_1956_25032" style="mask-type:alpha" maskUnits="userSpaceOnUse" x="0" y="0" width="64" height="65">
<rect y="0.194336" width="64" height="64" fill="#C4C4C4"/>
</mask>
<g mask="url(#mask0_1956_25032)">
<rect y="0.194336" width="64" height="64" fill="#EFF0F7"/>
<mask id="mask1_1956_25032" style="mask-type:alpha" maskUnits="userSpaceOnUse" x="0" y="0" width="64" height="65">
<rect y="0.194336" width="64" height="64" fill="#EFF0F7"/>
</mask>
<g mask="url(#mask1_1956_25032)">
<path d="M38.463 18.268C39.0517 18.309 39.6344 18.129 40.0975 17.7633C40.5605 17.3975 40.8706 16.8723 40.9671 16.2902C41.0636 15.7081 40.9397 15.1109 40.6195 14.6153C40.2993 14.1197 39.8058 13.7612 39.2355 13.6099C39.5783 13.2211 39.7899 12.7342 39.8403 12.2183C39.8907 11.7024 39.7773 11.1838 39.5162 10.736C39.2551 10.2882 38.8596 9.93405 38.3858 9.72379C37.912 9.51353 37.3841 9.45785 36.8768 9.56467C36.8303 9.05542 36.6524 8.56697 36.3604 8.14713C36.0684 7.7273 35.6725 7.39046 35.2113 7.16959C34.7501 6.94871 34.2394 6.85137 33.7293 6.8871C33.2192 6.92282 32.7271 7.09038 32.3011 7.37338C31.7035 6.93473 30.9763 6.70861 30.2353 6.73101C29.4943 6.75341 28.7821 7.02303 28.2121 7.49697C27.708 7.42639 27.1945 7.52061 26.7483 7.76558C26.3021 8.01056 25.947 8.39317 25.736 8.85639C25.5249 9.31962 25.4692 9.83864 25.5771 10.3361C25.6851 10.8336 25.9509 11.2828 26.3349 11.6169" fill="#211F54"/>
<path d="M27.8246 9.86331L28.3396 9.83756C30.8673 9.71158 33.3496 10.5427 35.2919 12.1652C37.2342 13.7878 38.4938 16.0826 38.8197 18.5924C39.4531 23.4308 40.0891 28.7841 40.187 31.3926C40.3878 36.8 35.037 37.8969 35.037 37.8969L35.8095 44.3575L32.923 47.4887L22.6952 44.6021L20.3778 21.1494C19.6156 15.5617 22.2266 10.4684 27.8246 9.86331Z" fill="#FFBF9D"/>
<path d="M35.0822 37.8763C32.581 37.9997 30.0968 37.4037 27.9238 36.1588C27.9238 36.1588 29.8473 39.944 35.2084 39.1895L35.0822 37.8763Z" fill="#FF9A6C"/>
<path d="M36.3695 24.327C36.381 24.5274 36.314 24.7244 36.1828 24.8762C36.0516 25.0281 35.8664 25.123 35.6665 25.1407C35.569 25.1533 35.4699 25.1462 35.3751 25.12C35.2803 25.0938 35.1917 25.0489 35.1145 24.988C35.0372 24.927 34.9729 24.8513 34.9254 24.7652C34.8778 24.6792 34.8479 24.5845 34.8374 24.4867C34.8252 24.2859 34.8918 24.0882 35.0231 23.9358C35.1544 23.7833 35.3399 23.6881 35.5403 23.6704C35.6381 23.6575 35.7375 23.6644 35.8326 23.6906C35.9277 23.7168 36.0166 23.7619 36.0939 23.8232C36.1712 23.8844 36.2355 23.9606 36.2828 24.0471C36.3302 24.1337 36.3596 24.2289 36.3695 24.327Z" fill="#211F54"/>
<path d="M37.7932 21.2807C37.7031 21.3863 37.098 20.982 36.2688 21.0232C35.4397 21.0644 34.8526 21.5125 34.7599 21.4146C34.7136 21.3709 34.8011 21.1855 35.056 20.9795C35.4019 20.7127 35.8221 20.5597 36.2585 20.5417C36.6901 20.5186 37.1178 20.6341 37.4791 20.8713C37.7443 21.0541 37.8396 21.2344 37.7932 21.2807Z" fill="#211F54"/>
<path d="M29.2834 24.5098C29.2949 24.7101 29.2279 24.9071 29.0967 25.059C28.9655 25.2109 28.7803 25.3057 28.5804 25.3234C28.4827 25.336 28.3834 25.3289 28.2884 25.3025C28.1935 25.2761 28.1048 25.231 28.0275 25.1698C27.9503 25.1086 27.886 25.0326 27.8386 24.9462C27.7911 24.8598 27.7615 24.7648 27.7513 24.6668C27.7398 24.4664 27.8067 24.2695 27.9379 24.1176C28.0691 23.9657 28.2543 23.8709 28.4542 23.8531C28.552 23.8402 28.6514 23.8471 28.7465 23.8733C28.8416 23.8996 28.9305 23.9447 29.0078 24.0059C29.0851 24.0672 29.1494 24.1433 29.1967 24.2299C29.2441 24.3164 29.2735 24.4116 29.2834 24.5098Z" fill="#211F54"/>
<path d="M29.6513 21.8396C29.5611 21.9452 28.956 21.5435 28.1269 21.5821C27.2977 21.6207 26.7106 22.0688 26.6154 21.9709C26.569 21.9297 26.6566 21.7443 26.9141 21.5383C27.2597 21.2711 27.68 21.1181 28.1166 21.1006C28.5479 21.0769 28.9754 21.1915 29.3371 21.4276C29.5998 21.6156 29.6976 21.7933 29.6513 21.8396Z" fill="#211F54"/>
<path d="M32.9694 27.8391C32.9694 27.7927 33.4844 27.6769 34.3033 27.5301C34.5144 27.4966 34.7127 27.4451 34.741 27.2983C34.7464 27.0789 34.6863 26.8629 34.5685 26.6778C34.3444 26.1628 34.1076 25.6478 33.8629 25.0967C32.8793 22.8462 32.1557 20.9897 32.2459 20.9511C32.336 20.9124 33.2089 22.7046 34.1925 24.9577L34.8723 26.549C35.0177 26.7984 35.0715 27.0908 35.0242 27.3756C34.9962 27.4515 34.9516 27.5202 34.8937 27.5768C34.8358 27.6333 34.7661 27.6763 34.6895 27.7026C34.5743 27.7395 34.4549 27.762 34.3342 27.7696C33.4947 27.8571 32.9746 27.8854 32.9694 27.8391Z" fill="#211F54"/>
<path d="M30.2143 18.6156C30.1165 18.8293 29.3929 18.6362 28.5174 18.6516C27.6419 18.6671 26.9132 18.8499 26.8205 18.6362C26.7819 18.5332 26.9287 18.3349 27.2351 18.1521C27.6281 17.9302 28.0712 17.8123 28.5226 17.8096C28.9731 17.8027 29.4174 17.9155 29.81 18.1366C30.119 18.3169 30.2581 18.5126 30.2143 18.6156Z" fill="#211F54"/>
<path d="M37.6646 17.8587C37.4998 18.057 36.8045 17.8948 35.9831 17.9282C35.1617 17.9617 34.4691 18.1291 34.2991 17.9282C34.2244 17.8355 34.3249 17.6398 34.6184 17.4467C35.028 17.2044 35.4944 17.0747 35.9703 17.0708C36.444 17.0511 36.9143 17.1587 37.3324 17.3823C37.6311 17.5755 37.7367 17.7634 37.6646 17.8587Z" fill="#211F54"/>
<path d="M38.1835 16.136C38.1835 16.136 36.5922 12.8271 34.9236 12.119C32.9049 11.2616 32.1633 13.4709 30.2552 13.0383C28.3472 12.6057 26.4211 11.7843 24.5774 13.3293C22.5561 15.0236 23.5964 16.0922 23.5835 18.4792C23.5397 28.21 21.9046 31.0424 21.1733 26.4976C21.0935 25.9981 19.6824 25.6685 19.3709 23.5622C18.9692 20.8327 18.6962 17.5059 19.2138 15.5283C19.6464 13.8623 20.527 12.6804 22.1441 11.3465C24.6933 9.24279 28.324 9.02907 30.814 9.14495C33.304 9.26082 38.199 11.8924 38.1835 16.136Z" fill="#211F54"/>
<path d="M21.5018 26.3483C21.4857 26.1505 21.4296 25.9581 21.3369 25.7826C21.2441 25.6072 21.1167 25.4524 20.9624 25.3277C20.8081 25.2029 20.63 25.1109 20.439 25.057C20.248 25.0032 20.048 24.9887 19.8513 25.0145C18.8496 25.1613 17.7578 25.787 17.9278 27.865C18.229 31.5472 21.8649 30.4837 21.8623 30.3781C21.8597 30.2726 21.6434 27.8881 21.5018 26.3483Z" fill="#FFBF9D"/>
<path d="M20.9483 29.0597C20.9303 29.0597 20.8865 29.1086 20.7835 29.1678C20.6362 29.2455 20.4646 29.263 20.3046 29.2168C19.9029 29.106 19.5321 28.5138 19.4549 27.852C19.4179 27.5375 19.4531 27.2187 19.5579 26.9199C19.5827 26.8017 19.636 26.6914 19.7132 26.5985C19.7904 26.5056 19.8891 26.4329 20.0008 26.3869C20.073 26.3619 20.1516 26.3626 20.2234 26.3889C20.2952 26.4152 20.3557 26.4654 20.3947 26.5311C20.4514 26.6315 20.4333 26.7062 20.4539 26.7113C20.4745 26.7165 20.5286 26.6418 20.4848 26.4924C20.4577 26.4029 20.4004 26.3256 20.3226 26.2736C20.2146 26.2056 20.0843 26.1825 19.9596 26.2092C19.8107 26.2513 19.6752 26.3309 19.5661 26.4405C19.457 26.5501 19.3779 26.6859 19.3364 26.8349C19.205 27.1667 19.1573 27.5257 19.1974 27.8804C19.2823 28.6194 19.7124 29.2837 20.2634 29.3944C20.3648 29.4153 20.4696 29.413 20.5699 29.3876C20.6703 29.3622 20.7636 29.3143 20.8428 29.2477C20.9483 29.1472 20.9715 29.0648 20.9483 29.0597Z" fill="#7C4236"/>
<path d="M21.2295 19.1976C21.7238 19.5015 22.2466 19.813 22.8259 19.8413C23.4053 19.8697 24.049 19.5066 24.1134 18.9298C24.1443 18.6723 24.0671 18.3762 24.2267 18.1573C24.4173 17.8998 24.7906 17.9668 25.1022 17.9848C26.1811 18.044 27.3733 16.7977 27.5948 15.742C27.7452 15.9307 27.9609 16.056 28.1994 16.0932C28.4378 16.1304 28.6815 16.0768 28.8822 15.9429C29.2124 15.717 29.5001 15.4345 29.732 15.1086C30.0384 14.7223 30.4761 14.3696 30.968 14.4133C31.2409 14.4391 31.5036 14.5884 31.7765 14.5498C32.2606 14.4829 32.4692 13.9035 32.5181 13.4194C32.567 12.9353 32.5953 12.3714 32.9945 12.0907C33.3936 11.81 33.8622 11.9439 34.3103 11.9877C34.7583 12.0315 35.3402 11.8976 35.4226 11.4573C35.4361 11.3393 35.4254 11.2198 35.3913 11.1061C35.3572 10.9923 35.3004 10.8867 35.2244 10.7955C34.9031 10.3632 34.4455 10.0519 33.9255 9.91169C33.4055 9.77152 32.8534 9.81074 32.3584 10.023C32.144 9.41944 31.7556 8.89291 31.2422 8.50989C30.7287 8.12688 30.1134 7.90453 29.4737 7.87092C28.8341 7.83731 28.1988 7.99395 27.6481 8.32106C27.0974 8.64817 26.6559 9.13109 26.3794 9.70887C25.9699 9.37306 25.4854 9.14103 24.9671 9.03249C24.4487 8.92395 23.9119 8.94211 23.4021 9.08543C22.8922 9.22874 22.4245 9.49298 22.0387 9.85569C21.6528 10.2184 21.3602 10.6689 21.1857 11.1689C20.7269 11.0711 20.2495 11.1108 19.8131 11.2831C19.3768 11.4554 19.001 11.7525 18.7327 12.1373C18.4645 12.5221 18.3157 12.9775 18.3049 13.4465C18.2942 13.9155 18.4221 14.3772 18.6725 14.7738C18.0288 15.1858 17.4932 15.8733 17.5163 16.6381C17.5395 17.4029 18.3223 18.1264 19.0613 17.887C18.9286 18.1947 18.9179 18.5413 19.0312 18.8567C19.1446 19.1721 19.3735 19.4326 19.6718 19.5854C19.97 19.7383 20.3151 19.7721 20.6374 19.68C20.9596 19.588 21.2347 19.3768 21.4071 19.0895" fill="#211F54"/>
<path d="M32.6978 11.1123C32.7007 11.1354 32.7007 11.1587 32.6978 11.1818C32.6962 11.2481 32.691 11.3143 32.6824 11.3801C32.6467 11.6327 32.5684 11.8774 32.4506 12.1037C32.2667 12.4629 32.0023 12.7748 31.6781 13.0152C31.2521 13.3457 30.729 13.5267 30.1898 13.5302L30.249 13.4452C30.3773 13.7782 30.369 14.1483 30.2259 14.4752C30.0765 14.8144 29.8788 15.1301 29.6388 15.4125C29.5236 15.5738 29.3925 15.723 29.2474 15.858C29.0789 15.9854 28.8817 16.0694 28.6731 16.1026C28.4573 16.1451 28.2343 16.134 28.0237 16.0703C27.8132 16.0065 27.6215 15.8921 27.4655 15.7369L27.5994 15.6906C27.5674 16.0762 27.4551 16.4509 27.2697 16.7906C27.0844 17.1303 26.83 17.4274 26.5231 17.663C26.1855 17.94 25.7671 18.1 25.3309 18.1188C24.9199 18.1204 24.5115 18.0525 24.1232 17.9179L24.221 17.869C24.0522 18.3251 23.7715 18.7315 23.4048 19.0509C23.2377 19.2106 23.0369 19.3307 22.8172 19.4024C22.5975 19.4742 22.3645 19.4957 22.1353 19.4655C21.7436 19.4009 21.3794 19.2232 21.0874 18.9542C20.7955 18.6851 20.5887 18.3366 20.4925 17.9514L20.5775 17.9875C20.2009 18.2157 19.7569 18.3067 19.3209 18.245C18.9964 18.2003 18.6869 18.0803 18.4171 17.8948C18.2476 17.7774 18.1003 17.6309 17.9819 17.4622C17.9392 17.4054 17.9046 17.343 17.8789 17.2768C18.033 17.4984 18.2269 17.6896 18.4505 17.8407C18.7158 18.0122 19.0173 18.1197 19.3312 18.1548C19.7447 18.2068 20.1635 18.1159 20.5182 17.8973L20.5852 17.8536L20.6032 17.9308C20.6985 18.2883 20.895 18.6106 21.1691 18.8591C21.4431 19.1076 21.7831 19.2717 22.1482 19.3316C22.3569 19.356 22.5684 19.3338 22.7674 19.2666C22.9665 19.1994 23.1481 19.0888 23.2992 18.9428C23.6449 18.6375 23.9101 18.252 24.0717 17.8201L24.0949 17.7506L24.167 17.7737C24.5381 17.9014 24.9281 17.9658 25.3206 17.9643C25.7236 17.9466 26.1098 17.7974 26.4201 17.5394C26.7119 17.3185 26.9543 17.039 27.1317 16.7188C27.3091 16.3986 27.4175 16.0449 27.45 15.6803L27.4629 15.5052L27.5839 15.6365C27.7227 15.7727 27.8924 15.8732 28.0786 15.9292C28.2647 15.9853 28.4617 15.9953 28.6526 15.9584C28.8393 15.9312 29.0164 15.8577 29.1676 15.7447C29.3061 15.6206 29.4305 15.4816 29.5383 15.3301C29.7719 15.0587 29.9653 14.7552 30.1126 14.4289C30.1787 14.2846 30.2158 14.1286 30.2215 13.97C30.2273 13.8114 30.2016 13.6531 30.146 13.5044L30.1126 13.4169H30.2053C30.7193 13.4217 31.221 13.259 31.6344 12.9534C31.9529 12.726 32.2168 12.4304 32.4068 12.0882C32.5602 11.7824 32.6586 11.4521 32.6978 11.1123V11.1123Z" fill="#455A64"/>
<path d="M32.928 30.6845C32.8997 30.548 32.0036 30.7849 31.1642 30.1695C30.3247 29.5541 30.1702 28.5885 30.044 28.6245C29.9848 28.6245 29.9256 28.882 30.0209 29.2914C30.1526 29.8183 30.4652 30.2822 30.9041 30.6021C31.3271 30.9082 31.852 31.0392 32.3692 30.9677C32.7529 30.9034 32.9486 30.7463 32.928 30.6845Z" fill="#211F54"/>
<path d="M22.308 40.6239C22.308 40.6239 22.9826 44.198 32.0207 46.5C32.0207 46.5 36.1664 43.8091 35.3244 40.2686L45.7684 46.5077L48.2662 75.9009L51.6136 96.601C41.2623 101.954 26.6365 100.685 12.7085 96.4671L16.7538 83.6799L16.4087 78.4759L11.8613 50.8414L20.0034 42.6993L22.308 40.6239Z" fill="#0075FF"/>
<path d="M35.3242 40.2634C35.5251 40.2634 42.4929 42.2152 43.528 42.5217C43.5821 42.5397 46.309 43.4873 46.3605 43.495C46.9991 43.5774 50.9079 45.0554 52.4889 48.5471C53.918 51.7014 56.3382 65.6591 56.3382 65.6591L45.9485 66.7859V51.4388L36.8126 43.2504L35.3242 40.2634Z" fill="#0075FF"/>
<path d="M45.4027 49.9607C45.4336 50.0699 45.4526 50.1821 45.4594 50.2954C45.4877 50.5143 45.5186 50.831 45.5469 51.2224C45.6087 51.9949 45.6551 53.0893 45.6319 54.2866C45.6087 55.484 45.5186 56.5681 45.4285 57.3483C45.3821 57.7371 45.3383 58.0538 45.3023 58.2701C45.2916 58.3828 45.2691 58.4942 45.2353 58.6023C45.2285 58.4887 45.2337 58.3748 45.2508 58.2624C45.274 58.0178 45.2997 57.7088 45.3332 57.338C45.4001 56.5655 45.4748 55.4788 45.498 54.2841C45.5212 53.0893 45.498 52.0104 45.4542 51.2276C45.4336 50.8568 45.4182 50.5452 45.4079 50.3006C45.3949 50.1877 45.3932 50.0739 45.4027 49.9607V49.9607Z" fill="#211F54"/>
<path d="M46.2426 43.9121C46.2001 44.1389 46.1425 44.3625 46.0701 44.5816C45.7742 45.6508 45.5955 46.7491 45.5371 47.857C45.5367 48.0879 45.5194 48.3186 45.4856 48.547C45.444 48.3186 45.4293 48.0862 45.4418 47.8544C45.4465 46.7334 45.6282 45.6202 45.9799 44.5559C46.0416 44.3316 46.1298 44.1155 46.2426 43.9121V43.9121Z" fill="#211F54"/>
<path d="M8.0332 62.9847C8.0332 62.9847 8.86234 69.1647 10.6313 73.8717C12.4003 78.5787 14.7204 82.66 17.3262 82.8248C19.9321 82.9896 28.875 81.388 32.6344 79.2868C36.3938 77.1857 38.9328 75.7514 38.9328 75.7514L44.3402 71.9945L39.8083 66.909C39.8083 66.909 27.8707 70.6118 25.8803 70.7225C24.6858 70.7869 23.4878 70.71 22.3114 70.4933C22.3114 70.4933 22.6229 65.5752 22.0693 63.6414C21.5157 61.7076 19.8059 58.0588 19.8059 58.0588L8.0332 62.9847Z" fill="#FFBF9D"/>
<path d="M22.3083 40.6239C21.9014 40.8943 14.295 44.0718 13.5534 44.4529C13.5534 44.4529 5.42681 47.5428 6.38985 56.1947C6.92544 60.997 7.80608 64.9187 7.80608 64.9187C7.80608 64.9187 11.102 67.4546 13.5534 66.4478C16.7103 65.1603 22.3083 64.9187 22.3083 64.9187L18.5591 52.2705L22.3083 40.6239Z" fill="#0075FF"/>
<path d="M18.3974 52.5408C18.4335 52.5408 18.9948 54.266 19.654 56.4161C20.3132 58.5662 20.8179 60.3223 20.7819 60.3326C20.7458 60.3429 20.1845 58.61 19.5253 56.4573C18.8661 54.3046 18.3717 52.5511 18.3974 52.5408Z" fill="#211F54"/>
<path d="M17.2915 50.0869C17.0649 49.7998 16.8225 49.5256 16.5653 49.2655L16.3696 49.0853L16.143 48.9076C15.9781 48.7765 15.8062 48.6545 15.6281 48.5419C15.2189 48.2829 14.7882 48.0598 14.3406 47.875C13.5243 47.5256 12.6524 47.3242 11.7656 47.2802C11.3997 47.2784 11.0344 47.3085 10.6738 47.3703C10.7641 47.3273 10.8592 47.2953 10.9571 47.2751C11.2224 47.2154 11.4936 47.1851 11.7656 47.1849C12.6653 47.2029 13.5529 47.3952 14.3792 47.7514C14.8352 47.9394 15.273 48.1687 15.6873 48.4364C15.8701 48.5703 16.0529 48.6939 16.2023 48.82L16.4289 49.008L16.622 49.1986C16.7337 49.3054 16.837 49.4208 16.931 49.5436C17.0081 49.6315 17.0771 49.7264 17.137 49.8269C17.1976 49.9078 17.2494 49.9949 17.2915 50.0869V50.0869Z" fill="#211F54"/>
<g opacity="0.3">
<path opacity="0.3" d="M20.668 60.6185C22.0908 63.3466 22.8087 66.3872 22.7563 69.4635C25.2119 69.6988 27.5423 70.6587 29.4512 72.2213C28.3156 71.4488 25.5089 70.4935 22.2129 70.5424C22.3777 65.4234 21.7443 64.0407 20.668 60.6185Z" fill="black"/>
</g>
</g>
</g>
</svg>
