<svg width="32" height="32" viewBox="0 0 32 32" fill="none" xmlns="http://www.w3.org/2000/svg">
<path d="M4.22012 8.37649L9.73235e-05 9.27585L4.22779 10.5134C4.49076 10.5922 4.72785 10.74 4.91439 10.9414C5.10093 11.1428 5.23012 11.3905 5.28856 11.6587L6.34164 16.7166L7.47928 11.751C7.54594 11.4738 7.68837 11.2206 7.89062 11.0197C8.09288 10.8188 8.34699 10.6781 8.6246 10.6133L12.8523 9.65249L8.50161 8.43031C8.24187 8.34315 8.01015 8.18818 7.8304 7.98141C7.65066 7.77464 7.52944 7.52358 7.47928 7.25424L6.51075 2.38086L5.41156 7.22348C5.34392 7.50944 5.19575 7.77003 4.9846 7.97438C4.77344 8.17872 4.50814 8.31827 4.22012 8.37649Z" fill="#0075FF"/>
<path d="M10.2055 22.0866L6.42596 22.892L10.2123 24.0004C10.4478 24.071 10.6602 24.2033 10.8272 24.3837C10.9943 24.5641 11.11 24.7859 11.1624 25.0262L12.1055 29.556L13.1244 25.1088C13.1841 24.8605 13.3117 24.6338 13.4928 24.4539C13.6739 24.2739 13.9015 24.1479 14.1502 24.0899L17.9365 23.2293L14.04 22.1347C13.8074 22.0567 13.5998 21.9179 13.4389 21.7327C13.2779 21.5475 13.1693 21.3227 13.1244 21.0814L12.257 16.7168L11.2725 21.0539C11.2119 21.31 11.0792 21.5434 10.8901 21.7264C10.701 21.9094 10.4634 22.0344 10.2055 22.0866Z" fill="#0075FF"/>
<path d="M18.775 11.5666L12.3095 12.9445L18.7867 14.8405C19.1896 14.9613 19.5528 15.1877 19.8386 15.4963C20.1244 15.8049 20.3223 16.1843 20.4119 16.5953L22.0253 24.3443L23.7683 16.7366C23.8704 16.312 24.0886 15.9241 24.3984 15.6163C24.7083 15.3085 25.0976 15.0929 25.523 14.9936L32.0001 13.5216L25.3345 11.6491C24.9366 11.5156 24.5816 11.2781 24.3062 10.9613C24.0308 10.6446 23.8451 10.2599 23.7683 9.84726L22.2844 2.38086L20.6003 9.80014C20.4967 10.2382 20.2697 10.6375 19.9462 10.9506C19.6227 11.2636 19.2162 11.4774 18.775 11.5666Z" fill="#0075FF"/>
</svg>
