<svg width="104" height="104" viewBox="0 0 104 104" fill="none" xmlns="http://www.w3.org/2000/svg">
<circle cx="52" cy="52" r="52" fill="#EDF5FF"/>
<path d="M69.5 78.0002H35.5C30.8052 78.0002 27 74.195 27 69.5002V38.3335H78V69.5002C78 74.195 74.1948 78.0002 69.5 78.0002Z" fill="#0075FF"/>
<path d="M69.5 27H35.5C30.8052 27 27 30.8052 27 35.5V38.3333H78V35.5C78 30.8052 74.1948 27 69.5 27Z" fill="#123578"/>
<path d="M58.1663 72.3334C59.7311 72.3334 60.9997 71.0649 60.9997 69.5001C60.9997 67.9353 59.7311 66.6667 58.1663 66.6667C56.6015 66.6667 55.333 67.9353 55.333 69.5001C55.333 71.0649 56.6015 72.3334 58.1663 72.3334Z" fill="#EDF5FF"/>
<path d="M46.8333 72.3334C48.3981 72.3334 49.6667 71.0649 49.6667 69.5001C49.6667 67.9353 48.3981 66.6667 46.8333 66.6667C45.2685 66.6667 44 67.9353 44 69.5001C44 71.0649 45.2685 72.3334 46.8333 72.3334Z" fill="#EDF5FF"/>
<path d="M35.5003 72.3334C37.0651 72.3334 38.3337 71.0649 38.3337 69.5001C38.3337 67.9353 37.0651 66.6667 35.5003 66.6667C33.9355 66.6667 32.667 67.9353 32.667 69.5001C32.667 71.0649 33.9355 72.3334 35.5003 72.3334Z" fill="#EDF5FF"/>
<path d="M35.5003 61.0002C37.0651 61.0002 38.3337 59.7316 38.3337 58.1668C38.3337 56.602 37.0651 55.3335 35.5003 55.3335C33.9355 55.3335 32.667 56.602 32.667 58.1668C32.667 59.7316 33.9355 61.0002 35.5003 61.0002Z" fill="#EDF5FF"/>
<path d="M46.8333 61.0002C48.3981 61.0002 49.6667 59.7316 49.6667 58.1668C49.6667 56.602 48.3981 55.3335 46.8333 55.3335C45.2685 55.3335 44 56.602 44 58.1668C44 59.7316 45.2685 61.0002 46.8333 61.0002Z" fill="#EDF5FF"/>
<path d="M58.1663 61.0002C59.7311 61.0002 60.9997 59.7316 60.9997 58.1668C60.9997 56.602 59.7311 55.3335 58.1663 55.3335C56.6015 55.3335 55.333 56.602 55.333 58.1668C55.333 59.7316 56.6015 61.0002 58.1663 61.0002Z" fill="#EDF5FF"/>
<path d="M69.5003 61.0002C71.0651 61.0002 72.3337 59.7316 72.3337 58.1668C72.3337 56.602 71.0651 55.3335 69.5003 55.3335C67.9355 55.3335 66.667 56.602 66.667 58.1668C66.667 59.7316 67.9355 61.0002 69.5003 61.0002Z" fill="#EDF5FF"/>
<path d="M69.5003 49.6667C71.0651 49.6667 72.3337 48.3981 72.3337 46.8333C72.3337 45.2685 71.0651 44 69.5003 44C67.9355 44 66.667 45.2685 66.667 46.8333C66.667 48.3981 67.9355 49.6667 69.5003 49.6667Z" fill="#EDF5FF"/>
<path d="M58.1663 49.6667C59.7311 49.6667 60.9997 48.3981 60.9997 46.8333C60.9997 45.2685 59.7311 44 58.1663 44C56.6015 44 55.333 45.2685 55.333 46.8333C55.333 48.3981 56.6015 49.6667 58.1663 49.6667Z" fill="#EDF5FF"/>
<path d="M46.8333 49.6667C48.3981 49.6667 49.6667 48.3981 49.6667 46.8333C49.6667 45.2685 48.3981 44 46.8333 44C45.2685 44 44 45.2685 44 46.8333C44 48.3981 45.2685 49.6667 46.8333 49.6667Z" fill="#EDF5FF"/>
</svg>
