<svg width="104" height="104" viewBox="0 0 104 104" fill="none" xmlns="http://www.w3.org/2000/svg">
<circle cx="52" cy="52" r="52" fill="#EDF5FF"/>
<path d="M51.9124 65.183C48.3967 61.6674 48.3967 55.9698 51.9124 52.4541C53.6688 50.7004 55.9735 49.8194 58.2755 49.8194C60.5774 49.8194 62.8821 50.6977 64.6386 52.4541C65.0204 52.836 65.3395 53.2505 65.6395 53.6787C65.9395 53.2533 66.2587 52.836 66.6405 52.4541C68.397 50.7004 70.7016 49.8194 73.0036 49.8194C75.3055 49.8194 77.6102 50.6977 79.3667 52.4541C79.484 52.5714 79.5658 52.7105 79.6776 52.8332C83.3978 46.5083 82.6014 38.2606 77.1711 32.8303C73.95 29.6119 69.7252 28 65.5032 28C61.2811 28 57.0563 29.6119 53.8352 32.833C53.137 33.5312 52.5506 34.2949 52.0024 35.0777C51.4542 34.2949 50.8678 33.5312 50.1696 32.833C46.9485 29.6119 42.7237 28 38.5016 28C34.2796 28 30.0548 29.6119 26.8337 32.833C20.3888 39.2779 20.3888 49.724 26.8337 56.1689C29.6348 58.9699 46.583 73.068 47.7585 74.2435C48.9313 75.4163 50.4668 76 52.0024 76C53.5379 76 55.0735 75.4136 56.2463 74.2435C56.5217 73.9681 57.6809 72.9698 59.301 71.5897C56.3826 69.1132 52.8124 66.0831 51.9124 65.183Z" fill="#0075FF"/>
<path d="M79.3674 52.4572C77.6109 50.7008 75.3063 49.8198 73.0043 49.8198C70.7024 49.8198 68.3977 50.6981 66.6412 52.4545C66.2594 52.8364 65.9403 53.2509 65.6403 53.6791C65.3402 53.2509 65.0211 52.8364 64.6393 52.4545C62.8828 50.7008 60.5781 49.8198 58.2762 49.8198C55.9742 49.8198 53.6696 50.6981 51.9131 52.4545C48.3975 55.9702 48.3975 61.6678 51.9131 65.1834C53.4405 66.7108 62.6837 74.3994 63.3247 75.0403C63.9656 75.6813 64.8029 75.9977 65.6403 75.9977C66.4776 75.9977 67.3149 75.6786 67.9558 75.0403C68.5995 74.3994 77.8428 66.7081 79.3674 65.1834C82.8831 61.6678 82.8831 55.9729 79.3674 52.4572Z" fill="#123578"/>
</svg>
