<svg width="104" height="104" viewBox="0 0 104 104" fill="none" xmlns="http://www.w3.org/2000/svg">
<circle cx="52" cy="52" r="52" fill="#EDF5FF"/>
<path d="M52.5 80C67.6878 80 80 67.6878 80 52.5C80 37.3122 67.6878 25 52.5 25C37.3122 25 25 37.3122 25 52.5C25 67.6878 37.3122 80 52.5 80Z" fill="#0075FF"/>
<path d="M49.7497 63.4997C49.0457 63.4997 48.3417 63.2302 47.8055 62.694L39.5555 54.444C38.4802 53.3687 38.4802 51.6307 39.5555 50.5555C40.6307 49.4802 42.3687 49.4802 43.444 50.5555L49.7497 56.8612L61.5555 45.0555C62.6307 43.9802 64.3687 43.9802 65.444 45.0555C66.5192 46.1307 66.5192 47.8687 65.444 48.944L51.694 62.694C51.1577 63.2302 50.4537 63.4997 49.7497 63.4997Z" fill="#EDF5FF"/>
</svg>
