<svg id="visual" viewBox="0 0 900 600" width="900" height="600" xmlns="http://www.w3.org/2000/svg" xmlns:xlink="http://www.w3.org/1999/xlink" version="1.1"><rect x="0" y="0" width="900" height="600" fill="#ffffff"></rect><path d="M0 377L18.8 377.3C37.7 377.7 75.3 378.3 112.8 365.8C150.3 353.3 187.7 327.7 225.2 304C262.7 280.3 300.3 258.7 337.8 263.5C375.3 268.3 412.7 299.7 450.2 320.3C487.7 341 525.3 351 562.8 339.5C600.3 328 637.7 295 675.2 279.8C712.7 264.7 750.3 267.3 787.8 283.2C825.3 299 862.7 328 881.3 342.5L900 357L900 601L881.3 601C862.7 601 825.3 601 787.8 601C750.3 601 712.7 601 675.2 601C637.7 601 600.3 601 562.8 601C525.3 601 487.7 601 450.2 601C412.7 601 375.3 601 337.8 601C300.3 601 262.7 601 225.2 601C187.7 601 150.3 601 112.8 601C75.3 601 37.7 601 18.8 601L0 601Z" fill="#97d9f1"></path><path d="M0 415L18.8 408.8C37.7 402.7 75.3 390.3 112.8 381.7C150.3 373 187.7 368 225.2 380.8C262.7 393.7 300.3 424.3 337.8 430.7C375.3 437 412.7 419 450.2 405.2C487.7 391.3 525.3 381.7 562.8 381.8C600.3 382 637.7 392 675.2 405.5C712.7 419 750.3 436 787.8 439.5C825.3 443 862.7 433 881.3 428L900 423L900 601L881.3 601C862.7 601 825.3 601 787.8 601C750.3 601 712.7 601 675.2 601C637.7 601 600.3 601 562.8 601C525.3 601 487.7 601 450.2 601C412.7 601 375.3 601 337.8 601C300.3 601 262.7 601 225.2 601C187.7 601 150.3 601 112.8 601C75.3 601 37.7 601 18.8 601L0 601Z" fill="#7fd5f4"></path><path d="M0 445L18.8 461.7C37.7 478.3 75.3 511.7 112.8 528.2C150.3 544.7 187.7 544.3 225.2 531.5C262.7 518.7 300.3 493.3 337.8 484.8C375.3 476.3 412.7 484.7 450.2 492C487.7 499.3 525.3 505.7 562.8 508.7C600.3 511.7 637.7 511.3 675.2 510C712.7 508.7 750.3 506.3 787.8 511.2C825.3 516 862.7 528 881.3 534L900 540L900 601L881.3 601C862.7 601 825.3 601 787.8 601C750.3 601 712.7 601 675.2 601C637.7 601 600.3 601 562.8 601C525.3 601 487.7 601 450.2 601C412.7 601 375.3 601 337.8 601C300.3 601 262.7 601 225.2 601C187.7 601 150.3 601 112.8 601C75.3 601 37.7 601 18.8 601L0 601Z" fill="#62d0f7"></path></svg>