<svg id="visual" viewBox="0 0 900 600" width="900" height="600" xmlns="http://www.w3.org/2000/svg" xmlns:xlink="http://www.w3.org/1999/xlink" version="1.1"><rect x="0" y="0" width="900" height="600" fill="#ffffff"></rect><path d="M0 107L21.5 112C43 117 86 127 128.8 136.2C171.7 145.3 214.3 153.7 257.2 164.2C300 174.7 343 187.3 385.8 187.7C428.7 188 471.3 176 514.2 160.5C557 145 600 126 642.8 115C685.7 104 728.3 101 771.2 101.5C814 102 857 106 878.5 108L900 110L900 0L878.5 0C857 0 814 0 771.2 0C728.3 0 685.7 0 642.8 0C600 0 557 0 514.2 0C471.3 0 428.7 0 385.8 0C343 0 300 0 257.2 0C214.3 0 171.7 0 128.8 0C86 0 43 0 21.5 0L0 0Z" fill="#a9e0f4"></path><path d="M0 53L21.5 62C43 71 86 89 128.8 98.3C171.7 107.7 214.3 108.3 257.2 98.5C300 88.7 343 68.3 385.8 55.7C428.7 43 471.3 38 514.2 39.3C557 40.7 600 48.3 642.8 48.7C685.7 49 728.3 42 771.2 39.2C814 36.3 857 37.7 878.5 38.3L900 39L900 0L878.5 0C857 0 814 0 771.2 0C728.3 0 685.7 0 642.8 0C600 0 557 0 514.2 0C471.3 0 428.7 0 385.8 0C343 0 300 0 257.2 0C214.3 0 171.7 0 128.8 0C86 0 43 0 21.5 0L0 0Z" fill="#62d0f7"></path></svg>