<svg id="visual" viewBox="0 0 900 600" width="900" height="600" xmlns="http://www.w3.org/2000/svg" xmlns:xlink="http://www.w3.org/1999/xlink" version="1.1"><rect x="0" y="0" width="900" height="600" fill="#ffffff"></rect><path d="M0 499L15 504.2C30 509.3 60 519.7 90 527.3C120 535 150 540 180 533.8C210 527.7 240 510.3 270 512C300 513.7 330 534.3 360 544.7C390 555 420 555 450 552.7C480 550.3 510 545.7 540 539.8C570 534 600 527 630 513.8C660 500.7 690 481.3 720 487.7C750 494 780 526 810 534.2C840 542.3 870 526.7 885 518.8L900 511L900 601L885 601C870 601 840 601 810 601C780 601 750 601 720 601C690 601 660 601 630 601C600 601 570 601 540 601C510 601 480 601 450 601C420 601 390 601 360 601C330 601 300 601 270 601C240 601 210 601 180 601C150 601 120 601 90 601C60 601 30 601 15 601L0 601Z" fill="#62d0f7"></path></svg>