<svg width="108" height="108" viewBox="0 0 108 108" fill="none" xmlns="http://www.w3.org/2000/svg">
<rect width="108" height="108" rx="23.7778" fill="#EDF5FF"/>
<path d="M54.5051 27.5889C39.6395 27.5889 27.5893 39.6391 27.5893 54.5048C27.5893 58.7898 28.6174 62.8245 30.3966 66.4204L27.6915 77.2379C27.0752 79.7007 29.3065 81.9347 31.772 81.3184L42.5895 78.6133C46.1854 80.3925 50.2201 81.4207 54.5051 81.4207C69.3708 81.4207 81.421 69.3704 81.421 54.5048C81.421 39.6391 69.3708 27.5889 54.5051 27.5889Z" fill="#0075FF"/>
<path d="M54.5042 58.5421C56.734 58.5421 58.5416 56.7345 58.5416 54.5047C58.5416 52.2749 56.734 50.4673 54.5042 50.4673C52.2744 50.4673 50.4668 52.2749 50.4668 54.5047C50.4668 56.7345 52.2744 58.5421 54.5042 58.5421Z" fill="#1D53BB"/>
<path d="M67.9612 58.5421C70.191 58.5421 71.9986 56.7345 71.9986 54.5047C71.9986 52.2749 70.191 50.4673 67.9612 50.4673C65.7314 50.4673 63.9238 52.2749 63.9238 54.5047C63.9238 56.7345 65.7314 58.5421 67.9612 58.5421Z" fill="#1D53BB"/>
<path d="M41.0471 58.5421C43.2769 58.5421 45.0845 56.7345 45.0845 54.5047C45.0845 52.2749 43.2769 50.4673 41.0471 50.4673C38.8174 50.4673 37.0098 52.2749 37.0098 54.5047C37.0098 56.7345 38.8174 58.5421 41.0471 58.5421Z" fill="#1D53BB"/>
</svg>
