<svg width="108" height="108" viewBox="0 0 108 108" fill="none" xmlns="http://www.w3.org/2000/svg">
<rect width="108" height="108" rx="23.7778" fill="#EDF5FF"/>
<path d="M73.95 76.7999H34.05C29.3276 76.7999 25.5 72.9724 25.5 68.2499V39.75C25.5 35.0275 29.3276 31.2 34.05 31.2H73.95C78.6724 31.2 82.5 35.0275 82.5 39.75V68.2499C82.5 72.9724 78.6724 76.7999 73.95 76.7999Z" fill="#0075FF"/>
<path d="M48.1347 53.3302L25.5 39.7499C25.5 35.0275 29.3276 31.2 34.05 31.2H73.95C78.6724 31.2 82.5 35.0275 82.5 39.7499L59.8653 53.3302C56.2543 55.4962 51.7457 55.4962 48.1347 53.3302Z" fill="#1D53BB"/>
</svg>
