<svg width="126" height="126" viewBox="0 0 126 126" fill="none" xmlns="http://www.w3.org/2000/svg">
<circle cx="63" cy="63" r="63" fill="#EDF5FF"/>
<path d="M82.6142 95.7678H43.8166C38.4593 95.7678 34.1172 91.4257 34.1172 86.0684V60.2033C34.1172 54.846 38.4593 50.5039 43.8166 50.5039H82.6142C87.9715 50.5039 92.3136 54.846 92.3136 60.2033V86.0684C92.3136 91.4257 87.9715 95.7678 82.6142 95.7678Z" fill="#0075FF"/>
<path d="M50.2866 50.5038C50.2866 43.3618 56.0771 37.5713 63.2191 37.5713C70.3611 37.5713 76.1517 43.3618 76.1517 50.5038H82.6179C82.6179 39.7892 73.9337 31.105 63.2191 31.105C52.5045 31.105 43.8203 39.7892 43.8203 50.5038H50.2866Z" fill="#123578"/>
<path d="M63.2163 66.6699C59.6437 66.6699 56.75 69.5636 56.75 73.1362C56.75 76.7088 59.6437 79.6025 63.2163 79.6025C66.7889 79.6025 69.6825 76.7088 69.6825 73.1362C69.6825 69.5636 66.7889 66.6699 63.2163 66.6699Z" fill="#123578"/>
</svg>
