<svg width="108" height="108" viewBox="0 0 108 108" fill="none" xmlns="http://www.w3.org/2000/svg">
<rect width="108" height="108" rx="23.7778" fill="#EDF5FF"/>
<path d="M28.7435 41.3063C29.3725 45.9896 31.8346 56.7531 41.5413 66.4599C51.248 76.1666 62.0087 78.6287 66.6949 79.2576C70.0891 79.9915 73.7695 79.0593 76.4073 76.4216C80.5325 72.2963 65.5899 57.3538 61.4647 61.479L58.8326 64.1111L43.89 49.1685L46.5193 46.5364C50.6445 42.4112 35.7019 27.4687 31.5767 31.5939C28.939 34.2316 28.0068 37.912 28.7435 41.3063Z" fill="#0075FF"/>
<path d="M31.5859 31.5855L46.5257 46.5252C50.6424 42.3972 50.6424 35.7164 46.5172 31.5912C42.3976 27.4716 35.714 27.4688 31.5859 31.5855Z" fill="#1D53BB"/>
<path d="M61.4707 61.4705L76.4104 76.4103C80.5271 72.285 80.5271 65.6014 76.4019 61.4762C72.2796 57.3567 65.5987 57.3538 61.4707 61.4705Z" fill="#1D53BB"/>
</svg>
