<svg width="88" height="88" viewBox="0 0 88 88" fill="none" xmlns="http://www.w3.org/2000/svg">
<circle cx="44" cy="44" r="44" fill="#EDF5FF"/>
<path d="M66 44.5C66 56.3741 56.3741 66 44.5 66C32.6259 66 23 56.3741 23 44.5C23 32.6259 32.6259 23 44.5 23C56.3741 23 66 32.6259 66 44.5Z" fill="#0075FF" stroke="#1D53BB" stroke-width="4"/>
<path d="M48.6229 49.7392L46.3575 46.4515C46.0144 46.0074 45.7935 45.4833 45.7159 44.9264L44.6584 37.35C44.6584 36.0528 43.6056 35 42.3084 35C41.0112 35 39.9584 36.0528 39.9584 37.35L39.0255 45.5961C38.8751 46.9262 39.3968 48.2446 40.419 49.1094L45.3 53.0644C46.2188 53.9833 47.7064 53.9833 48.6229 53.0644C49.5394 52.1456 49.5394 50.6581 48.6229 49.7392Z" fill="#123578"/>
</svg>
