<svg width="88" height="88" viewBox="0 0 88 88" fill="none" xmlns="http://www.w3.org/2000/svg">
<circle cx="44" cy="44" r="44" fill="#EDF5FF"/>
<path d="M44.0942 60.4267C54.9816 60.4267 63.8076 51.6008 63.8076 40.7134C63.8076 29.826 54.9816 21 44.0942 21C33.2068 21 24.3809 29.826 24.3809 40.7134C24.3809 51.6008 33.2068 60.4267 44.0942 60.4267Z" fill="#0075FF"/>
<path fill-rule="evenodd" clip-rule="evenodd" d="M67.5051 55.3626L61.6963 49.5537C60.7456 51.444 59.5168 53.17 58.034 54.6507C58.034 54.6507 58.0318 54.6529 58.0296 54.6529C55.7669 56.9134 52.9545 58.6219 49.8135 59.5747L56.5511 66.3123C57.8302 67.5914 60.0184 66.9869 60.4587 65.2302L61.1552 62.4419C61.4597 61.2218 62.4125 60.269 63.6325 59.9646L66.4209 59.268C68.1798 58.8299 68.7843 56.6418 67.5051 55.3626Z" fill="#123578"/>
<path fill-rule="evenodd" clip-rule="evenodd" d="M30.159 54.6549C30.159 54.6549 30.1568 54.6527 30.1546 54.6527C28.6739 53.172 27.4451 51.446 26.4923 49.5557L20.6834 55.3645C19.4042 56.6437 20.0088 58.8319 21.7654 59.2722L24.5538 59.9687C25.7738 60.2732 26.7266 61.226 27.0311 62.446L27.7276 65.2344C28.1679 66.991 30.3539 67.5956 31.6353 66.3164L38.3729 59.5788C35.2319 58.626 32.4194 56.9175 30.159 54.6549Z" fill="#123578"/>
<circle cx="44.0942" cy="40.7134" r="18.2075" stroke="#1D53BB" stroke-width="3.01176"/>
</svg>
