<svg width="88" height="88" viewBox="0 0 88 88" fill="none" xmlns="http://www.w3.org/2000/svg">
<circle cx="44" cy="44" r="44" fill="#EDF5FF"/>
<path d="M63.834 28.8376C58.7205 23.7241 50.4001 23.7241 45.2866 28.8376C44.8316 29.2926 44.4416 29.791 44.0732 30.2893L63.639 47.2116C63.704 47.2766 63.7907 47.3416 63.834 47.385C68.9475 42.2714 68.9475 33.9511 63.834 28.8376Z" fill="#1D53BB"/>
<path d="M63.901 47.4611L63.9097 47.4524L63.8425 47.3939C63.8382 47.3896 63.8339 47.3831 63.8295 47.3787C63.7905 47.3397 63.7039 47.2704 63.6345 47.214L42.3787 28.84C37.2587 23.72 28.96 23.72 23.84 28.84C18.72 33.96 18.72 42.2587 23.84 47.3787C26.0653 49.604 39.5294 60.8039 40.4633 61.7378C40.7082 61.9826 40.9725 62.1906 41.252 62.3705C41.7677 62.8276 42.1599 63.1657 42.3224 63.2783C43.4859 64.093 45.0438 64.2989 46.3179 63.4733C47.0437 63.001 47.3341 62.1018 47.4511 61.5146C47.5594 61.4171 47.7111 61.2849 47.8844 61.1332C48.6255 61.4691 50.4152 62.0996 51.8864 61.1701C53.7477 59.9957 53.8777 58.271 53.8777 58.271C53.8777 58.271 56.0206 58.778 57.8168 57.2591C59.5719 55.777 59.5437 53.6731 59.5437 53.6731C59.5437 53.6731 62.3041 54.5463 64.2217 52.2019C65.6626 50.4468 65.2184 48.8564 63.901 47.4611Z" fill="#0075FF"/>
<path d="M41.9556 62.522C42.571 61.9066 42.3868 62.0908 43 61.4776C44.3195 60.158 44.3195 58.0194 43 56.7021C41.6804 55.3825 39.5418 55.3825 38.2245 56.7021C37.6091 57.3174 37.7933 57.1332 37.1801 57.7464C35.8605 59.066 35.8605 61.2046 37.1801 62.522C38.4975 63.8415 40.6361 63.8415 41.9556 62.522Z" fill="#1D53BB"/>
<path d="M32.9224 55.8854C33.5378 55.27 33.3536 55.4542 33.9668 54.841C35.2863 53.5215 35.2863 51.3829 33.9668 50.0655C32.6472 48.7481 30.5086 48.746 29.1913 50.0655C28.5759 50.6809 28.7601 50.4967 28.1469 51.1099C26.8273 52.4294 26.8273 54.568 28.1469 55.8854C29.4643 57.2049 31.6029 57.2049 32.9224 55.8854Z" fill="#1D53BB"/>
<path d="M28.1753 52.2344C28.7907 51.619 28.6065 51.8032 29.2197 51.19C30.5393 49.8704 30.5393 47.7319 29.2197 46.4145C27.9002 45.0949 25.7616 45.0949 24.4442 46.4145C23.8288 47.0298 24.013 46.8457 23.3998 47.4588C22.0803 48.7784 22.0803 50.917 23.3998 52.2344C24.7172 53.5539 26.8558 53.5539 28.1753 52.2344Z" fill="#1D53BB"/>
<path d="M37.2586 59.7745C37.8739 59.1592 38.2964 58.7367 38.9118 58.1213C40.2313 56.8017 40.2313 54.6632 38.9118 53.3458C37.5922 52.0284 35.4537 52.0262 34.1363 53.3458C33.5209 53.9611 33.0962 54.3837 32.4809 54.999C31.1613 56.3186 31.1613 58.4571 32.4809 59.7745C33.8004 61.0941 35.939 61.0941 37.2586 59.7745Z" fill="#1D53BB"/>
<path d="M63.933 32.8034C63.1682 32.4394 56.0266 28.6779 53.6236 28.3117C52.8371 28.1925 51.4851 28.264 49.288 28.6151C47.8817 28.8404 45.351 29.1286 44.3608 29.9888C43.4399 30.7883 40.5365 35.1651 38.7836 37.8627C37.9364 39.1671 38.4434 40.9634 39.8279 41.4964C41.5397 42.1529 43.6566 42.2266 45.8212 40.7835C46.8872 40.0728 48.0551 39.3231 49.0713 38.6796C50.6834 37.6591 52.7656 37.8237 54.2087 39.0718L57.3981 41.8301C59.2962 40.1118 66.8321 34.1814 63.933 32.8034Z" fill="#1D53BB"/>
</svg>
