<svg width="88" height="88" viewBox="0 0 88 88" fill="none" xmlns="http://www.w3.org/2000/svg">
<circle cx="44" cy="44" r="44" fill="#EDF5FF"/>
<path d="M66.9935 34.7402C67.1246 32.4172 65.487 30.2851 63.1778 29.9056C53.5822 28.3347 54.3205 21 44.0004 21C33.6803 21 34.4186 28.3347 24.823 29.9056C22.5161 30.2828 20.8762 32.4149 21.0073 34.7402C21.9963 52.2892 29.055 60.6267 44.0004 67C58.9458 60.6267 66.0045 52.2892 66.9935 34.7402Z" fill="#0075FF"/>
<path fill-rule="evenodd" clip-rule="evenodd" d="M63.9983 34.5714L63.9983 34.5712C64.0465 33.7163 63.4261 32.9867 62.6913 32.8659C57.3515 31.9912 54.5588 29.5024 52.3646 27.547C52.1993 27.3997 52.0373 27.2554 51.878 27.115C50.764 26.1339 49.8569 25.4118 48.7367 24.891C47.6511 24.3864 46.2026 24 44.0004 24C41.7983 24 40.3498 24.3864 39.2642 24.891C38.144 25.4118 37.2369 26.1339 36.1229 27.115C35.9635 27.2554 35.8016 27.3997 35.6363 27.547C33.4418 29.5027 30.6487 31.9918 25.3077 32.8662L25.3071 32.8663C24.5769 32.9857 23.9542 33.7138 24.0026 34.5713L24.0026 34.5714C24.4761 42.974 26.381 48.8175 29.6815 53.2761C32.8134 57.5071 37.4163 60.7826 44.0004 63.7267C50.5846 60.7826 55.1874 57.5071 58.3194 53.2761C61.6198 48.8175 63.5247 42.974 63.9983 34.5714ZM44.0004 67C29.055 60.6267 21.9963 52.2892 21.0073 34.7402C20.8762 32.4149 22.5161 30.2828 24.823 29.9056C29.2899 29.1743 31.5174 27.194 33.6636 25.286C36.1277 23.0953 38.4845 21 44.0004 21C49.5164 21 51.8732 23.0953 54.3373 25.286C56.4834 27.194 58.7109 29.1743 63.1778 29.9056C65.487 30.2851 67.1246 32.4172 66.9935 34.7402C66.0045 52.2892 58.9458 60.6267 44.0004 67Z" fill="#1D53BB"/>
</svg>
