<svg width="64" height="64" viewBox="0 0 64 64" fill="none" xmlns="http://www.w3.org/2000/svg">
<mask id="mask0_1956_25112" style="mask-type:alpha" maskUnits="userSpaceOnUse" x="0" y="0" width="64" height="64">
<rect width="64" height="64" fill="#DCDDEB"/>
</mask>
<g mask="url(#mask0_1956_25112)">
<rect x="0.333984" width="64" height="64" fill="#EFF0F7"/>
<mask id="mask1_1956_25112" style="mask-type:alpha" maskUnits="userSpaceOnUse" x="0" y="0" width="65" height="64">
<rect x="0.333984" width="64" height="64" fill="#EFF0F7"/>
</mask>
<g mask="url(#mask1_1956_25112)">
<path d="M26.3873 42.4442L27.9036 38.6088L36.9501 38.1306L40.6449 38.6088L41.0515 39.6699L43.5599 84.0434C43.5599 84.0434 34.7972 85.8102 30.4145 85.1965C26.0319 84.5829 20.8848 82.5833 20.8848 82.5833V57.3487L26.3873 42.4442Z" fill="#0075FF"/>
<path d="M22.4747 16.9359C22.4747 16.9359 20.1095 25.783 19.905 32.045L19.8359 34.1289C19.8359 34.1289 25.0598 38.4757 29.4373 38.7314L33.1091 29.7054L22.4747 16.9359Z" fill="#211F54"/>
<path d="M45.6658 22.3618C44.6686 18.0457 44.285 13.0238 40.6951 10.2112C38.0333 8.12214 34.9982 7.53916 31.6179 7.68235C29.9533 7.75139 28.0739 8.51847 26.6216 9.33926C24.6348 10.4643 23.7936 12.7477 22.8322 14.8214C20.9119 18.9764 21.1548 24.6017 22.4563 26.164L39.8155 35.3307C43.2827 33.5281 45.4536 32.8096 46.0084 28.1891C46.2325 26.2415 46.1166 24.2698 45.6658 22.3618V22.3618Z" fill="#211F54"/>
<path d="M40.514 13.6402L29.5907 10.4159C26.0698 9.90453 23.5486 14.1619 23.1855 17.7007C22.7841 21.6307 22.4466 26.4455 22.7969 29.4039C23.5026 35.3514 28.0054 36.2821 28.0054 36.2821L27.9721 38.6703C27.9721 38.6703 27.8675 41.2575 28.9986 42.4591C30.1294 43.6605 32.1416 45.4898 33.0395 45.4898C33.8253 45.4898 36.2779 44.399 37.6417 43.1326C39.2132 41.6733 40.5524 38.8749 40.5524 38.8749L42.2911 15.8213C42.3221 15.3012 42.1567 14.7884 41.8276 14.3845C41.4985 13.9806 41.0297 13.7149 40.514 13.6402Z" fill="#FFBF9D"/>
<path d="M25.19 23.0829C25.1827 23.2797 25.2514 23.4717 25.3818 23.6193C25.5122 23.7668 25.6944 23.8586 25.8906 23.8755C25.9867 23.8872 26.0842 23.8795 26.1772 23.8528C26.2703 23.8262 26.3571 23.7811 26.4324 23.7203C26.5078 23.6595 26.5702 23.5842 26.6159 23.4989C26.6616 23.4135 26.6897 23.3199 26.6986 23.2235C26.7059 23.0267 26.6372 22.8346 26.5068 22.6871C26.3764 22.5395 26.1942 22.4478 25.998 22.4308C25.9019 22.4191 25.8044 22.4268 25.7113 22.4535C25.6182 22.4802 25.5315 22.5252 25.4561 22.586C25.3808 22.6468 25.3184 22.7221 25.2727 22.8075C25.227 22.8928 25.1988 22.9865 25.19 23.0829V23.0829Z" fill="#211F54"/>
<path d="M23.9088 21.2649C23.9983 21.3672 24.5889 20.9658 25.4071 21.0092C26.2254 21.0527 26.8032 21.4746 26.8953 21.3774C26.9413 21.3365 26.8518 21.155 26.5987 20.953C26.2558 20.6947 25.8413 20.5491 25.4123 20.5362C24.9879 20.5177 24.5687 20.6351 24.2156 20.8711C23.9573 21.0425 23.8653 21.2189 23.9088 21.2649Z" fill="#211F54"/>
<path d="M32.354 23.0829C32.3467 23.2797 32.4154 23.4717 32.5458 23.6193C32.6763 23.7668 32.8584 23.8586 33.0546 23.8755C33.1508 23.8876 33.2484 23.8801 33.3416 23.8536C33.4349 23.8271 33.5218 23.7821 33.5972 23.7212C33.6726 23.6603 33.735 23.5849 33.7806 23.4994C33.8262 23.4139 33.8541 23.32 33.8627 23.2235C33.8699 23.0267 33.8013 22.8346 33.6708 22.6871C33.5404 22.5395 33.3583 22.4478 33.162 22.4308C33.0659 22.4191 32.9685 22.4268 32.8754 22.4535C32.7823 22.4802 32.6955 22.5252 32.6202 22.586C32.5448 22.6468 32.4825 22.7221 32.4368 22.8075C32.391 22.8928 32.3629 22.9865 32.354 23.0829V23.0829Z" fill="#211F54"/>
<path d="M31.935 21.3722C32.0245 21.4771 32.6152 21.0731 33.4309 21.1165C34.2465 21.16 34.8295 21.5819 34.9216 21.4847C34.9676 21.4413 34.8781 21.2597 34.625 21.0603C34.2814 20.8012 33.8661 20.6548 33.436 20.6409C33.0118 20.6244 32.5932 20.7416 32.2393 20.9759C31.9836 21.1395 31.889 21.3134 31.935 21.3722Z" fill="#211F54"/>
<path d="M28.7576 26.6499C28.7576 26.6039 28.259 26.4965 27.4408 26.3584C27.2337 26.3303 27.0393 26.2792 27.0087 26.136C27 25.9204 27.057 25.7073 27.1723 25.5249L27.8499 23.9626C28.796 21.738 29.4889 19.9047 29.3969 19.8714C29.3048 19.8382 28.4687 21.605 27.5252 23.8322L26.8731 25.4047C26.7311 25.6504 26.6813 25.9387 26.7325 26.2178C26.7591 26.2926 26.8028 26.3602 26.86 26.4153C26.9173 26.4703 26.9865 26.5113 27.0624 26.5349C27.1768 26.571 27.2954 26.5925 27.4152 26.5988C28.2386 26.6729 28.7525 26.6959 28.7576 26.6499Z" fill="#211F54"/>
<path d="M27.9796 36.2819C30.7608 36.4379 33.5306 35.8182 35.9803 34.4921C35.9803 34.4921 33.8606 38.5525 27.9668 37.765L27.9796 36.2819Z" fill="#FF9A6C"/>
<path d="M31.4026 28.4627C31.3016 28.295 31.1608 28.1548 30.9927 28.0544C30.8245 27.9541 30.6343 27.8967 30.4387 27.8874C30.1651 27.8574 29.8885 27.9008 29.6373 28.0132C29.3861 28.1255 29.1694 28.3028 29.0093 28.5266C28.8953 28.7378 28.8634 28.9837 28.9198 29.217C28.9684 29.3346 28.9198 29.2758 29.017 29.3602C29.3107 29.6859 29.6793 29.9351 30.0909 30.0864C30.3137 30.1511 30.5507 30.1474 30.7714 30.0758C30.9921 30.0042 31.1861 29.8681 31.3285 29.6849C31.4513 29.5074 31.5232 29.2996 31.5363 29.0842C31.5494 28.8687 31.5031 28.6538 31.4026 28.4627V28.4627Z" fill="#FF9A6C"/>
<path d="M31.2817 27.3454C31.1513 27.3301 31.1079 28.2173 30.3229 28.8105C29.5379 29.4038 28.5995 29.2657 28.5867 29.3884C28.5714 29.4421 28.7887 29.57 29.185 29.5981C29.7032 29.6286 30.2156 29.4756 30.6323 29.166C31.0333 28.8687 31.3021 28.4264 31.3814 27.9335C31.4326 27.5653 31.3482 27.3429 31.2817 27.3454Z" fill="#211F54"/>
<path d="M31.6269 18.3755C31.6857 18.6031 32.5065 18.5775 33.45 18.7846C34.3935 18.9917 35.1376 19.3267 35.2833 19.1426C35.3498 19.0531 35.2347 18.8306 34.9458 18.5877C34.5559 18.2855 34.1024 18.0757 33.6196 17.9743C33.1368 17.8728 32.6373 17.8824 32.1587 18.0022C31.7956 18.1096 31.6038 18.2656 31.6269 18.3755Z" fill="#211F54"/>
<path d="M23.9779 19.071C24.162 19.232 24.745 18.9508 25.5121 18.8332C26.2792 18.7155 26.9107 18.7565 27.0309 18.5442C27.0795 18.4419 26.9542 18.2732 26.6525 18.1377C26.2458 17.9796 25.803 17.9379 25.374 18.0175C24.9345 18.08 24.5225 18.2682 24.1876 18.5596C23.9523 18.7871 23.8935 18.9891 23.9779 19.071Z" fill="#211F54"/>
<path d="M29.5574 9.77917C29.5574 9.82264 29.5395 9.86355 29.5293 9.90702H29.5497L29.5574 9.77917Z" fill="#211F54"/>
<path d="M38.1845 38.3915C38.0514 38.429 37.912 38.4381 37.7752 38.4182C37.6383 38.3983 37.5072 38.3499 37.3903 38.2762C37.2734 38.2024 37.1733 38.1049 37.0965 37.99C37.0196 37.8751 36.9678 37.7453 36.9443 37.6091C36.7566 36.4188 36.7462 35.2073 36.9137 34.014C37.1054 32.3724 38.2203 30.6541 38.3583 29.0049C38.614 25.8624 38.3456 24.1007 37.9952 21.4644C36.5148 21.2803 35.134 20.3931 34.1598 19.2424C32.9734 17.8617 32.2574 16.1485 31.5594 14.4661C31.6026 16.1304 32.1649 17.7396 33.1677 19.0686C32.835 19.1199 32.495 19.0925 32.1748 18.9886C31.8546 18.8847 31.5633 18.7072 31.3241 18.4702C30.8505 17.9918 30.4821 17.4196 30.2426 16.7903C29.6033 15.292 29.2478 13.688 29.1942 12.06C28.9718 14.3895 29.233 16.7398 29.9613 18.9637C29.5471 18.8359 29.1021 18.951 28.6828 19.0123C28.2635 19.0737 27.7623 19.0635 27.458 18.7566C27.2741 18.5301 27.158 18.2562 27.1231 17.9665C26.7161 15.9867 26.6504 13.9519 26.9287 11.95C26.3682 13.0108 25.9134 14.1242 25.571 15.274C25.2316 16.435 25.2227 17.6676 25.5454 18.8333C25.4978 18.8824 25.4407 18.9215 25.3777 18.9481C25.3147 18.9748 25.2469 18.9885 25.1785 18.9885C25.1101 18.9885 25.0423 18.9748 24.9793 18.9481C24.9163 18.9215 24.8592 18.8824 24.8116 18.8333C24.6248 18.6291 24.5122 18.3679 24.492 18.0918C24.336 17.0972 24.5099 16.0846 24.6863 15.0951C24.0956 16.1434 23.8987 17.3605 23.5715 18.5163C23.2442 19.672 22.7225 20.8636 21.7177 21.5233C21.5478 20.0112 21.5978 18.4824 21.866 16.9847C22.0628 15.7445 22.6509 14.5146 23.1956 13.3845C23.7726 12.1325 24.5862 11.0038 25.5914 10.0604C27.3353 8.52624 28.064 9.19105 29.1712 9.77148L29.3016 9.82773C29.3016 9.7996 29.3016 9.77148 29.3016 9.74591L29.3502 9.50811C32.2637 8.85658 35.2986 8.99875 38.1384 9.91978C40.2351 10.6025 40.4397 15.1181 40.9511 12.9728C41.2605 11.6739 42.943 12.8603 42.9634 12.8961C45.436 17.358 48.0594 24.4356 48.1796 35.6198L38.1845 38.3915Z" fill="#211F54"/>
<path d="M23.472 41.2808L18.1024 42.3291C16.9576 42.567 15.8979 43.1084 15.0341 43.8965C14.1704 44.6847 13.5345 45.6906 13.1931 46.8089C13.0237 47.3618 12.9014 47.9281 12.8274 48.5016C12.3595 52.1274 6.3777 69.2257 6.69584 71.9668C7.01399 74.7079 8.8309 77.5768 11.664 78.7478C14.7733 80.0263 16.9365 76.1628 16.9365 76.1628C16.9569 76.5156 16.9697 76.7125 16.9697 76.7125L8.8309 95.1226C10.902 98.8174 14.7912 103.144 18.7417 104.085C18.7417 104.085 23.3263 75.4749 23.5845 69.2257C23.8428 62.9765 27.8547 38.6906 27.8547 38.6906L23.472 41.2808Z" fill="#0075FF"/>
<path d="M8.81836 95.1201C8.82841 95.0878 8.84036 95.0562 8.85415 95.0254L8.96922 94.7519L9.41924 93.7061L11.1119 89.8272C12.5643 86.5261 14.592 81.9236 16.8983 76.6869V76.7151C16.8574 75.3062 16.8037 73.8359 16.7347 72.3376C16.5762 68.9573 16.3921 65.7381 16.2693 62.8103C16.1466 59.8826 16.0699 57.2387 16.0469 55.0219C16.0239 52.805 16.0469 51.0074 16.0469 49.7673L16.0801 48.3405C16.0801 48.182 16.0801 48.0593 16.0801 47.9698C16.0801 47.8803 16.0801 47.8419 16.0801 47.8419C16.0823 47.8845 16.0823 47.9272 16.0801 47.9698C16.0801 48.0593 16.0801 48.182 16.0801 48.3405C16.0801 48.6729 16.0801 49.1536 16.0801 49.7699C16.0801 51.01 16.0801 52.8024 16.1108 55.0193C16.1415 57.2362 16.2284 59.8775 16.3665 62.8027C16.5046 65.7278 16.6733 68.9522 16.8421 72.3325C16.9111 73.8308 16.9623 75.3011 17.0057 76.7125V76.7253V76.7407L11.181 89.8604C10.4574 91.4994 9.86926 92.8137 9.46015 93.7342L8.98967 94.757C8.93853 94.872 8.89506 94.959 8.86693 95.0254C8.85286 95.058 8.83664 95.0896 8.81836 95.1201Z" fill="#211F54"/>
<path d="M16.3021 63.8178C16.2791 63.8178 16.2689 63.5877 16.1436 63.2425C15.9847 62.7932 15.6903 62.4043 15.301 62.1295C14.9117 61.8547 14.4467 61.7075 13.9702 61.7083C13.6045 61.7083 13.3821 61.7774 13.377 61.7543C13.5599 61.6616 13.7625 61.6143 13.9676 61.6163C14.4689 61.5868 14.9655 61.7275 15.3768 62.0158C15.788 62.304 16.0898 62.7228 16.2331 63.2041C16.3066 63.3998 16.3303 63.6107 16.3021 63.8178Z" fill="#211F54"/>
<path d="M48.4783 79.8424L53.6868 44.789L44.0726 41.2655C44.0726 41.2655 41.8199 39.1944 40.6207 38.1205L40.1988 43.5412C40.1988 43.5412 38.8871 65.7024 40.9352 76.8584C42.9834 88.0144 42.6919 87.6411 44.1902 94.9029C45.2795 100.186 45.4687 104.801 47.1001 105.266C48.7314 105.732 54.4206 97.4138 54.4206 97.4138L48.4783 79.8424Z" fill="#0075FF"/>
<path d="M53.6781 44.7888C53.6781 44.7888 56.5931 46.2182 57.0277 50.2888C57.4138 53.8686 58.0505 75.8584 57.9662 77.6253C57.8818 79.3921 56.3578 84.4089 53.6193 84.5827C49.2853 84.8589 48.0938 81.5144 48.0938 81.5144L49.2469 70.2868L53.6781 44.7888Z" fill="#0075FF"/>
<path d="M52.4898 50.45C52.4831 50.5238 52.472 50.5973 52.4566 50.6698C52.4259 50.8258 52.385 51.0329 52.3364 51.2937L51.8838 53.595C51.508 55.5306 51.017 58.1975 50.5465 61.1815C50.0761 64.1655 49.7181 66.8528 49.4803 68.8089C49.3627 69.7805 49.2681 70.5681 49.2016 71.1281C49.1683 71.3838 49.1428 71.6037 49.1249 71.7596C49.1182 71.8328 49.1063 71.9055 49.0891 71.977C49.0823 71.9038 49.0823 71.8302 49.0891 71.7571C49.1044 71.5985 49.1198 71.3889 49.1428 71.1229C49.1914 70.5732 49.2706 69.7805 49.378 68.7987C49.5928 66.8375 49.938 64.1348 50.4008 61.1585C50.8636 58.1822 51.3801 55.5076 51.779 53.5771C51.9784 52.6106 52.1472 51.8307 52.2725 51.2937C52.3339 51.0381 52.3799 50.8284 52.4157 50.675C52.434 50.598 52.4588 50.5227 52.4898 50.45V50.45Z" fill="#211F54"/>
</g>
</g>
</svg>
