<svg width="88" height="88" viewBox="0 0 88 88" fill="none" xmlns="http://www.w3.org/2000/svg">
<circle cx="44" cy="44" r="44" fill="#EDF5FF"/>
<path d="M64.7111 58.4899C64.0797 57.8585 60.4387 54.2175 58.5488 52.3276C56.967 54.8401 54.8396 56.9675 52.3271 58.5493C54.217 60.4392 57.858 64.0802 58.4894 64.7116C60.2077 66.4298 62.9929 66.4298 64.7111 64.7116C66.4293 62.9934 66.4293 60.2081 64.7111 58.4899Z" fill="#123578"/>
<path d="M41.8003 61.6005C52.7357 61.6005 61.6005 52.7357 61.6005 41.8003C61.6005 30.8649 52.7357 22 41.8003 22C30.8649 22 22 30.8649 22 41.8003C22 52.7357 30.8649 61.6005 41.8003 61.6005Z" fill="#0075FF"/>
</svg>
