<svg width="88" height="88" viewBox="0 0 88 88" fill="none" xmlns="http://www.w3.org/2000/svg">
<circle cx="44" cy="44" r="44" fill="#EDF5FF"/>
<path d="M44.0002 69C57.8074 69 69.0002 57.8071 69.0002 44C69.0002 30.1929 57.8074 19 44.0002 19C30.1931 19 19.0002 30.1929 19.0002 44C19.0002 57.8071 30.1931 69 44.0002 69Z" fill="#0075FF"/>
<path d="M41.4999 54.0001C40.8599 54.0001 40.2199 53.7551 39.7324 53.2676L32.2324 45.7676C31.2549 44.7901 31.2549 43.2101 32.2324 42.2326C33.2099 41.2551 34.7899 41.2551 35.7674 42.2326L41.4999 47.9651L52.2324 37.2326C53.2099 36.2551 54.7899 36.2551 55.7674 37.2326C56.7449 38.2101 56.7449 39.7901 55.7674 40.7676L43.2674 53.2676C42.7799 53.7551 42.1399 54.0001 41.4999 54.0001Z" fill="#123578"/>
</svg>
