<svg width="256" height="256" viewBox="0 0 256 256" fill="none" xmlns="http://www.w3.org/2000/svg">
<g clip-path="url(#clip0_1932_19736)">
<path d="M33.7602 67.2654L-2.55882e-05 74.4602L33.8216 84.3607C35.9253 84.9911 37.822 86.1735 39.3143 87.7848C40.8066 89.396 41.8402 91.3775 42.3077 93.5234L50.7324 133.986L59.8335 94.2613C60.3668 92.0439 61.5062 90.0184 63.1242 88.4112C64.7422 86.804 66.7751 85.6784 68.996 85.1601L102.818 77.4734L68.0121 67.6959C65.9342 66.9987 64.0804 65.7589 62.6425 64.1047C61.2045 62.4506 60.2347 60.4421 59.8335 58.2873L52.0852 19.3003L43.2917 58.0413C42.7506 60.329 41.5653 62.4137 39.876 64.0484C38.1867 65.6832 36.0644 66.7996 33.7602 67.2654Z" fill="#0075FF"/>
<path d="M81.6428 176.944L51.4067 183.388L81.6977 192.255C83.5819 192.82 85.2805 193.879 86.6171 195.322C87.9536 196.765 88.8793 198.539 89.298 200.461L96.8432 236.7L104.994 201.122C105.472 199.136 106.492 197.322 107.941 195.883C109.391 194.443 111.211 193.435 113.2 192.971L143.491 186.087L112.319 177.33C110.458 176.706 108.798 175.595 107.51 174.114C106.222 172.632 105.354 170.833 104.994 168.904L98.0549 133.986L90.1792 168.683C89.6946 170.732 88.6331 172.599 87.1201 174.063C85.6072 175.527 83.7064 176.527 81.6428 176.944Z" fill="#0075FF"/>
<path d="M150.199 92.7866L98.4754 103.81L150.293 118.978C153.516 119.944 156.422 121.755 158.708 124.224C160.994 126.692 162.578 129.728 163.294 133.016L176.201 195.008L190.145 134.146C190.962 130.749 192.708 127.646 195.187 125.184C197.666 122.721 200.78 120.997 204.183 120.203L256 108.426L202.675 93.4461C199.492 92.3779 196.652 90.4785 194.449 87.9442C192.246 85.4099 190.76 82.3328 190.145 79.0315L178.274 19.3003L164.802 78.6546C163.973 82.1594 162.157 85.3534 159.569 87.858C156.981 90.3626 153.729 92.0729 150.199 92.7866Z" fill="#0075FF"/>
</g>
<defs>
<clipPath id="clip0_1932_19736">
<rect width="256" height="256" fill="white"/>
</clipPath>
</defs>
</svg>
