<svg width="706" height="606" viewBox="0 0 706 606" fill="none" xmlns="http://www.w3.org/2000/svg">
<path d="M539.93 503.374L540.69 501.879L542.408 501.1C542.408 501.1 549.766 502.283 551.557 505.341C553.348 508.4 560.437 519.315 560.143 521.49C559.848 523.666 557.984 524.83 556.733 524.365C555.482 523.899 553.17 520.865 553.17 520.865L552.183 520.736L540.531 523.415L539.145 521.025L550 517.029L544.094 516.446L538.924 510.931L539.93 503.374Z" fill="#05C168"/>
<path d="M531.642 520.617C531.986 521.626 532.078 522.704 531.909 523.756C531.74 524.808 531.316 525.803 530.673 526.654C528.76 529.173 525.908 533.126 523.222 536.643C521.125 539.383 507.007 546.639 499.378 550.433C497.948 551.147 496.306 551.312 494.762 550.895C493.219 550.478 491.883 549.509 491.007 548.171C488.294 544.044 486.137 539.576 484.593 534.885C484.102 533.375 484.179 531.739 484.809 530.283C485.439 528.826 486.579 527.649 488.015 526.972L520.855 511.492C521.685 511.1 522.588 510.888 523.506 510.869C524.423 510.85 525.334 511.025 526.18 511.383C527.025 511.741 527.785 512.272 528.41 512.944C529.036 513.615 529.512 514.411 529.808 515.279L531.642 520.617Z" fill="#0075FF"/>
<path d="M531.642 520.616C531.642 520.616 531.642 520.5 531.55 520.285L531.237 519.323C530.955 518.471 530.538 517.233 530.011 515.646C529.748 514.738 529.306 513.892 528.71 513.158C527.991 512.284 527.057 511.613 526 511.209C524.784 510.74 523.458 510.64 522.185 510.921C521.501 511.098 520.839 511.351 520.211 511.675L518.218 512.606L499.078 521.597L487.775 526.923C486.765 527.436 485.903 528.199 485.27 529.138C484.637 530.078 484.254 531.163 484.157 532.291C484.073 533.44 484.258 534.592 484.697 535.656C485.071 536.735 485.47 537.807 485.923 538.867C486.798 540.967 487.795 543.014 488.91 544.996C489.462 545.973 490.038 546.925 490.639 547.852C490.933 548.327 491.269 548.775 491.645 549.188C492.596 550.182 493.83 550.859 495.18 551.127C496.53 551.395 497.93 551.24 499.188 550.683C501.077 549.776 502.868 548.845 504.652 547.938C508.197 546.099 511.539 544.34 514.618 542.594C516.163 541.723 517.641 540.859 519.027 539.977C520.391 539.169 521.676 538.235 522.866 537.188C523.364 536.643 523.825 536.066 524.246 535.46C524.669 534.884 525.086 534.32 525.472 533.781C526.276 532.69 527.042 531.66 527.754 530.716C528.465 529.773 529.121 528.878 529.735 528.038C530.319 527.305 530.85 526.531 531.323 525.722C531.916 524.553 532.14 523.233 531.967 521.934C531.92 521.483 531.809 521.041 531.636 520.623C531.636 520.623 531.636 520.733 531.722 520.953C531.806 521.278 531.868 521.607 531.906 521.94C532.05 523.223 531.808 524.521 531.213 525.666C530.734 526.464 530.199 527.226 529.612 527.946L527.607 530.606L525.313 533.67L524.056 535.344C523.64 535.942 523.183 536.512 522.688 537.047C521.506 538.076 520.231 538.993 518.88 539.787C517.494 540.657 516.016 541.515 514.471 542.379C511.404 544.114 508.044 545.879 504.505 547.693C502.733 548.587 500.911 549.531 499.047 550.426C498.094 550.847 497.052 551.027 496.012 550.951C494.973 550.875 493.968 550.546 493.086 549.991C492.638 549.708 492.226 549.37 491.86 548.986C491.498 548.587 491.174 548.156 490.891 547.699C490.278 546.773 489.726 545.86 489.18 544.855C488.069 542.885 487.076 540.851 486.206 538.763C485.764 537.709 485.371 536.643 484.979 535.57C484.549 534.549 484.368 533.44 484.452 532.334C484.542 531.26 484.906 530.227 485.508 529.332C486.11 528.438 486.931 527.712 487.892 527.223L499.176 521.879L518.291 512.827L520.278 511.883C520.891 511.565 521.537 511.315 522.204 511.135C523.43 510.863 524.709 510.955 525.883 511.399C526.916 511.784 527.831 512.43 528.539 513.274C529.131 513.997 529.573 514.83 529.839 515.726C530.391 517.307 530.826 518.533 531.121 519.403C531.268 519.807 531.378 520.126 531.464 520.353C531.55 520.58 531.642 520.616 531.642 520.616Z" fill="#133578"/>
<path d="M553.66 521.601C553.709 521.601 553.887 521.288 554.273 520.816C555.267 519.595 556.692 518.803 558.253 518.604C558.585 518.596 558.915 518.563 559.241 518.506C558.92 518.386 558.575 518.344 558.235 518.383C557.413 518.419 556.61 518.646 555.89 519.046C555.171 519.446 554.554 520.008 554.09 520.687C553.876 520.954 553.729 521.267 553.66 521.601Z" fill="#133578"/>
<path d="M543.788 512.531C544.27 512.979 544.786 513.389 545.333 513.756C546.302 514.486 547.651 515.472 549.055 516.667C550.26 517.683 551.374 518.8 552.385 520.008C553.152 520.939 553.557 521.564 553.612 521.54C553.558 521.369 553.477 521.207 553.373 521.062C553.127 520.647 552.857 520.248 552.563 519.867C551.594 518.604 550.49 517.451 549.27 516.428C548.057 515.407 546.787 514.453 545.468 513.573C544.939 513.178 544.377 512.829 543.788 512.531V512.531Z" fill="#133578"/>
<path d="M519.328 536.092L510.252 518.828L493.872 526.304L504.555 545.15L519.328 536.092Z" fill="white"/>
<path d="M567.557 534.729C567.259 534.242 566.919 533.782 566.539 533.356C565.883 532.535 564.957 531.413 563.914 530.187C562.872 528.962 561.921 527.865 561.222 527.08C560.867 526.634 560.468 526.223 560.032 525.854C560.327 526.343 560.668 526.803 561.05 527.227C561.707 528.049 562.633 529.17 563.669 530.396C564.705 531.622 565.662 532.719 566.367 533.497C566.726 533.942 567.124 534.355 567.557 534.729V534.729Z" fill="#133578"/>
<path d="M565.055 543.456C565.135 543.456 563.786 539.779 562.044 535.28C560.302 530.782 558.824 527.184 558.745 527.221C558.665 527.258 560.008 530.898 561.75 535.397C563.491 539.895 564.969 543.493 565.055 543.456Z" fill="#133578"/>
<path d="M557.205 538.626C557.349 536.705 557.386 534.777 557.316 532.852C557.349 530.926 557.277 528.998 557.101 527.079C556.957 529 556.92 530.927 556.991 532.852C556.958 534.779 557.029 536.706 557.205 538.626V538.626Z" fill="#133578"/>
<path d="M673.108 196.683C670.573 197.094 668.088 197.769 665.694 198.697C663.216 199.381 660.817 200.326 658.538 201.515C661.077 201.123 663.564 200.447 665.952 199.502C668.433 198.826 670.832 197.881 673.108 196.683V196.683Z" fill="#DCDDEB"/>
<path d="M488.089 461.776V522.175H496.18L507.042 461.1L488.089 461.776Z" fill="#DCDDEB"/>
<path d="M561.647 461.776V522.175H569.753L580.599 461.1L561.647 461.776Z" fill="#DCDDEB"/>
<path d="M653.638 461.776V522.175H645.548L634.686 461.1L653.638 461.776Z" fill="#DCDDEB"/>
<path d="M705.308 461.776V522.175H697.218L686.356 461.1L705.308 461.776Z" fill="#DCDDEB"/>
<path d="M538.648 328.931C538.648 328.931 506.672 319.718 497.857 332.007C489.041 344.296 488.09 462.613 488.09 462.613C488.09 462.613 545.159 463.643 546.206 462.613C547.254 461.582 538.648 328.931 538.648 328.931Z" fill="#68AEFF"/>
<path d="M703.681 441.03L704.621 236.37C704.664 230.074 703.916 223.315 701.525 217.49C699.134 211.665 695.609 206.373 691.154 201.921C686.699 197.469 681.404 193.946 675.575 191.557C669.746 189.167 663.501 187.959 657.201 188.001H581.839C575.579 188.002 569.381 189.253 563.612 191.682C557.842 194.111 552.616 197.668 548.242 202.144C543.868 206.62 540.434 211.926 538.141 217.748C535.848 223.57 534.744 229.791 534.892 236.046L539.727 441.03H703.681Z" fill="#0075FF"/>
<path d="M703.68 441.031C703.68 441.031 674.67 398.204 640.486 396.803C606.303 395.402 532.747 396.803 532.747 396.803C532.747 396.803 500.127 398.027 497.855 438.421V462.242H703.68V441.031Z" fill="#0075FF"/>
<path d="M636.877 398.027L552.378 397.576C543.562 397.576 533.522 396.449 524.98 398.881C499.79 406.016 496.099 438.212 498.097 460.407C498.178 461.325 496.76 461.325 496.679 460.407C495.067 441.804 496.969 415.728 512.892 403.326C522.095 396.175 532.764 396.062 543.739 396.111L636.877 396.61C637.065 396.61 637.246 396.685 637.379 396.817C637.512 396.95 637.586 397.131 637.586 397.319C637.586 397.507 637.512 397.687 637.379 397.82C637.246 397.953 637.065 398.027 636.877 398.027V398.027Z" fill="#56A4FF"/>
<path d="M558.228 194.413C558.418 194.389 558.607 194.352 558.792 194.3C559.162 194.3 559.694 194.042 560.403 193.913L563.111 193.543C564.191 193.446 565.432 193.301 566.818 193.205C572.426 192.818 580.565 192.625 590.606 192.625C595.634 192.625 601.13 192.625 607.029 192.802C613.31 192.776 619.589 193.088 625.837 193.736C629.194 194.154 632.524 194.762 635.813 195.556C639.239 196.363 642.564 197.551 645.724 199.099C652.202 202.717 657.539 208.072 661.132 214.561C661.994 216.223 662.675 217.973 663.163 219.78C663.572 221.594 663.852 223.434 664.001 225.288C664.452 228.992 664.823 232.649 665.177 236.24C665.886 243.44 666.418 250.382 666.789 257.001C667.659 270.257 668.078 282.207 668.4 292.242C668.723 302.276 668.884 310.361 669.045 316.014C669.045 318.785 669.19 320.959 669.238 322.457C669.238 323.165 669.238 323.713 669.238 324.067C669.217 324.26 669.217 324.455 669.238 324.647C669.253 324.454 669.253 324.26 669.238 324.067V322.457C669.238 320.927 669.238 318.752 669.238 316.014C669.238 310.393 669.093 302.276 668.868 292.225C668.642 282.175 668.255 270.224 667.433 256.953C667.014 250.333 666.499 243.375 665.822 236.176C665.467 232.568 665.097 228.912 664.661 225.191C664.51 223.299 664.219 221.42 663.791 219.57C663.354 217.719 662.716 215.92 661.889 214.207C660.071 210.833 657.751 207.753 655.008 205.075C652.379 202.436 649.383 200.19 646.111 198.407C642.897 196.826 639.512 195.621 636.022 194.815C632.697 194.018 629.328 193.416 625.933 193.011C619.664 192.368 613.363 192.078 607.061 192.142C601.146 192.142 595.65 192.029 590.622 192.142C580.565 192.142 572.426 192.496 566.818 192.979C565.416 193.108 564.175 193.269 563.095 193.382C562.015 193.494 561.112 193.72 560.387 193.849C559.662 193.978 559.13 194.219 558.775 194.316C558.59 194.329 558.406 194.362 558.228 194.413V194.413Z" fill="#DCDDEB"/>
<path d="M624.016 256.228C624.958 256.221 625.87 256.559 626.579 257.178C626.933 257.501 627.189 257.917 627.317 258.378C627.446 258.84 627.441 259.328 627.304 259.787C627.132 260.34 626.803 260.831 626.356 261.2C625.91 261.569 625.366 261.8 624.79 261.865C624.209 261.861 623.641 261.7 623.145 261.399C622.648 261.099 622.242 260.67 621.97 260.158C621.741 259.732 621.621 259.256 621.621 258.773C621.621 258.289 621.741 257.814 621.97 257.388C622.461 256.574 623.177 255.919 624.032 255.503C624.032 255.503 623.71 255.503 623.21 255.616C622.482 255.902 621.866 256.416 621.454 257.082C621.124 257.582 620.928 258.158 620.882 258.755C620.837 259.353 620.945 259.952 621.196 260.496C621.513 261.172 622.02 261.741 622.655 262.133C623.291 262.525 624.027 262.723 624.774 262.703C625.523 262.634 626.233 262.338 626.809 261.854C627.385 261.37 627.8 260.722 627.997 259.997C628.151 259.415 628.132 258.8 627.944 258.228C627.755 257.657 627.404 257.152 626.933 256.776C626.333 256.262 625.564 255.987 624.774 256.002C624.258 256.083 624 256.18 624.016 256.228Z" fill="#DCDDEB"/>
<path d="M626.788 237.224C625.791 237.668 624.913 238.341 624.226 239.188C622.418 241.127 621.204 243.542 620.727 246.147C620.25 248.753 620.53 251.441 621.534 253.893C621.842 254.923 622.395 255.863 623.146 256.631C623.275 256.631 622.614 255.536 622.018 253.7C621.217 251.32 621.034 248.776 621.485 246.305C621.936 243.835 623.006 241.52 624.596 239.575C625.885 238.077 626.869 237.336 626.788 237.224Z" fill="#DCDDEB"/>
<path d="M624.967 282.836C625.063 282.755 624.274 281.676 623.355 279.76C622.134 277.268 621.364 274.579 621.083 271.819C620.809 268.598 621.083 265.554 622.291 263.911C622.965 263.023 623.901 262.37 624.967 262.043C624.967 262.043 624.612 261.914 624 262.043C623.128 262.287 622.355 262.8 621.792 263.508C620.979 264.567 620.467 265.824 620.309 267.148C620.097 268.713 620.065 270.296 620.212 271.868C620.491 274.73 621.37 277.501 622.791 280.001C623.305 281.091 624.047 282.057 624.967 282.836V282.836Z" fill="#DCDDEB"/>
<path d="M613.251 258.71C614.424 258.425 615.613 258.215 616.813 258.081C618.014 258.197 619.204 258.402 620.374 258.694C620.536 258.533 619.085 257.227 616.813 257.243C614.54 257.26 613.074 258.565 613.251 258.71Z" fill="#DCDDEB"/>
<path d="M576.069 256.228C577.011 256.22 577.923 256.558 578.632 257.178C578.986 257.501 579.242 257.917 579.371 258.378C579.499 258.84 579.494 259.328 579.357 259.787C579.185 260.34 578.856 260.831 578.41 261.2C577.963 261.569 577.419 261.8 576.843 261.865C576.263 261.861 575.694 261.7 575.198 261.399C574.701 261.099 574.295 260.67 574.023 260.158C573.806 259.725 573.701 259.246 573.715 258.763C573.729 258.279 573.862 257.807 574.103 257.388C574.6 256.578 575.315 255.925 576.166 255.503C576.166 255.503 575.844 255.503 575.344 255.616C574.621 255.911 574.007 256.423 573.588 257.082C573.258 257.582 573.061 258.158 573.016 258.755C572.971 259.353 573.079 259.952 573.33 260.496C573.646 261.172 574.154 261.741 574.789 262.133C575.425 262.525 576.161 262.723 576.907 262.703C577.657 262.634 578.367 262.338 578.943 261.854C579.519 261.37 579.933 260.722 580.131 259.997C580.285 259.415 580.266 258.8 580.077 258.228C579.888 257.657 579.537 257.152 579.067 256.776C578.466 256.262 577.698 255.987 576.907 256.002C576.327 256.083 576.053 256.18 576.069 256.228Z" fill="#DCDDEB"/>
<path d="M578.841 237.224C577.844 237.668 576.966 238.341 576.279 239.188C574.482 241.133 573.275 243.547 572.798 246.151C572.322 248.754 572.595 251.439 573.587 253.893C573.895 254.923 574.448 255.863 575.199 256.631C575.328 256.631 574.667 255.536 574.071 253.7C573.284 251.318 573.101 248.778 573.539 246.307C574.012 243.844 575.08 241.533 576.649 239.575C577.939 238.077 578.922 237.336 578.841 237.224Z" fill="#DCDDEB"/>
<path d="M576.988 282.836C577.101 282.755 576.295 281.676 575.376 279.76C574.155 277.268 573.386 274.579 573.104 271.819C572.83 268.598 573.104 265.554 574.313 263.911C574.995 263.018 575.943 262.364 577.02 262.043C577.02 262.043 576.682 261.914 576.053 262.043C575.181 262.287 574.409 262.8 573.845 263.508C573.033 264.567 572.521 265.824 572.363 267.148C572.175 268.716 572.175 270.3 572.363 271.868C572.634 274.731 573.513 277.504 574.941 280.001C575.42 281.077 576.117 282.042 576.988 282.836V282.836Z" fill="#DCDDEB"/>
<path d="M565.337 258.709C566.509 258.423 567.699 258.213 568.898 258.08C570.099 258.196 571.29 258.401 572.46 258.692C572.637 258.531 571.171 257.226 568.898 257.242C568.23 257.175 567.555 257.274 566.934 257.53C566.313 257.786 565.764 258.191 565.337 258.709V258.709Z" fill="#DCDDEB"/>
<path d="M702.809 327.562C702.809 327.562 653.927 314.918 645.079 331.556C636.231 348.194 634.636 462.741 634.636 462.741C634.636 462.741 705.226 465.334 705.388 462.371C705.549 459.407 702.809 327.562 702.809 327.562Z" fill="#68AEFF"/>
<path d="M704.111 326.49C704.111 326.49 673.22 318.654 664.34 330.927C655.46 343.2 653.203 463.24 653.203 463.24C653.203 463.24 704.776 464.85 705.776 463.723C706.775 462.595 704.111 326.49 704.111 326.49Z" fill="#4F9EFB"/>
<path d="M686.533 386.832C686.533 386.832 686.774 386.752 687.145 386.832C687.39 386.879 687.618 386.992 687.803 387.16C687.988 387.327 688.123 387.543 688.193 387.782C688.408 388.554 688.441 389.364 688.289 390.15C688.279 390.362 688.223 390.57 688.126 390.759C688.029 390.948 687.893 391.114 687.727 391.247C687.561 391.379 687.369 391.475 687.163 391.528C686.957 391.58 686.742 391.588 686.533 391.551C686.241 391.47 685.969 391.327 685.737 391.133C685.504 390.939 685.315 390.697 685.183 390.425C685.05 390.152 684.977 389.855 684.968 389.552C684.959 389.249 685.014 388.948 685.13 388.668C685.455 387.808 686.013 387.055 686.742 386.494L687.048 386.236H686.694C686.114 386.107 685.807 386.075 685.775 386.14C685.775 386.14 686.033 386.365 686.581 386.607V386.268C685.644 386.745 684.907 387.538 684.502 388.507C684.23 389.234 684.23 390.035 684.502 390.762C684.65 391.198 684.912 391.586 685.26 391.886C685.609 392.186 686.031 392.387 686.484 392.469C686.817 392.528 687.159 392.512 687.485 392.423C687.811 392.334 688.113 392.174 688.37 391.954C688.803 391.52 689.075 390.952 689.143 390.343C689.29 389.414 689.184 388.463 688.837 387.589C688.714 387.268 688.491 386.994 688.201 386.809C687.911 386.623 687.569 386.536 687.226 386.558C686.662 386.542 686.5 386.8 686.533 386.832Z" fill="#DCDDEB"/>
<path d="M677.345 365.056C677.136 365.185 679.908 369.888 682.551 375.928C685.194 381.968 686.693 387.202 686.951 387.202C686.856 386.015 686.607 384.846 686.209 383.723C685.426 380.976 684.457 378.285 683.308 375.67C682.175 373.046 680.867 370.501 679.392 368.052C678.858 366.96 678.168 365.951 677.345 365.056V365.056Z" fill="#DCDDEB"/>
<path d="M696.621 367.087C695.912 367.917 695.326 368.845 694.881 369.841C693.914 371.613 692.673 374.109 691.448 376.928C690.223 379.747 689.256 382.372 688.628 384.288C688.21 385.32 687.933 386.404 687.806 387.51C688.048 387.59 689.788 382.952 692.222 377.331C694.655 371.71 696.847 367.216 696.621 367.087Z" fill="#DCDDEB"/>
<path d="M677.572 425.874C678.078 424.229 678.466 422.549 678.733 420.849C679.361 417.74 680.247 413.44 681.311 408.721C682.375 404.002 683.422 399.718 684.196 396.641C684.684 394.989 685.056 393.304 685.308 391.6C684.624 393.158 684.085 394.776 683.696 396.432C682.794 399.476 681.65 403.744 680.57 408.479C679.49 413.215 678.716 417.547 678.233 420.704C677.848 422.402 677.626 424.134 677.572 425.874Z" fill="#DCDDEB"/>
<path d="M696.59 412.732C696.518 411.636 696.307 410.554 695.961 409.511C695.253 406.911 694.386 404.356 693.366 401.861C692.349 399.368 691.176 396.942 689.853 394.597C689.373 393.578 688.749 392.635 688 391.794C687.79 391.923 690.224 396.385 692.577 402.199C694.93 408.013 696.348 412.797 696.59 412.732Z" fill="#DCDDEB"/>
<g opacity="0.5">
<path d="M237.541 516.699L237.541 75.2286L414.722 75.2286V516.699H237.541Z" fill="#DCDDEB"/>
<path d="M247.274 216.24V86.2871L405.016 86.2871V216.24H247.274Z" fill="#A0A3BD"/>
<path d="M247.274 357.874V227.921H405.016V357.874H247.274Z" fill="#A0A3BD"/>
<path d="M247.274 499.507V369.554H405.016V499.507H247.274Z" fill="#A0A3BD"/>
<path d="M342.964 216.24V86.2871H405.014V216.24H342.964Z" fill="#EFF0F7"/>
<path d="M342.964 357.874V227.921H405.014V357.874H342.964Z" fill="#EFF0F7"/>
<path d="M342.997 499.507V369.554H405.047V499.507H342.997Z" fill="#EFF0F7"/>
<path d="M189.434 516.699L189.434 75.2286H237.535L237.535 516.699H189.434Z" fill="#F7F9FC"/>
<path d="M48.0983 516.699L48.0983 75.2286L225.279 75.2286L225.279 516.699H48.0983Z" fill="#DCDDEB"/>
<path d="M57.8367 216.24L57.8367 86.2871L215.579 86.2871V216.24H57.8367Z" fill="#A0A3BD"/>
<path d="M57.8367 357.874L57.8367 227.921H215.579V357.874H57.8367Z" fill="#A0A3BD"/>
<path d="M57.7996 499.461L57.7996 369.508H215.542V499.461H57.7996Z" fill="#A0A3BD"/>
<path d="M153.526 216.24V86.2871H215.576V216.24H153.526Z" fill="#EFF0F7"/>
<path d="M153.526 357.874V227.921H215.576V357.874H153.526Z" fill="#EFF0F7"/>
<path d="M153.56 499.507V369.554H215.609V499.507H153.56Z" fill="#EFF0F7"/>
<path d="M0 516.699L0 75.2286H48.1015L48.1015 516.699H0Z" fill="#F7F9FC"/>
<path d="M204.854 499.472H76.7644L76.7644 388.244H204.854V499.472Z" fill="#DCDDEB"/>
<path d="M57.8359 388.276H76.7952V499.505H57.8359V388.276Z" fill="#EFF0F7"/>
<path d="M394.291 216.255L266.202 216.255V105.026L394.291 105.026V216.255Z" fill="#DCDDEB"/>
<path d="M247.27 105.014H266.229V216.243H247.27V105.014Z" fill="#EFF0F7"/>
</g>
<path d="M97.2041 547.311C97.2041 546.668 95.0609 483.712 84.8062 473.76C74.9142 464.105 63.3736 473.398 62.9449 473.76L61.8898 472.491C62.0217 472.376 74.9637 461.831 85.9603 472.491C96.6766 482.888 98.7704 544.542 98.8528 547.162L97.2041 547.311Z" fill="#263238"/>
<path d="M98.095 559.684C98.095 558.926 91.0881 484.074 118.439 452.703L119.692 453.79C92.7863 484.601 99.6282 558.745 99.7271 559.519L98.095 559.684Z" fill="#263238"/>
<path d="M97.1224 551.774L95.4738 551.659C95.4738 550.802 100.832 466.591 80.7842 448.154L81.8888 446.935C102.53 465.899 97.3533 548.265 97.1224 551.774Z" fill="#263238"/>
<path d="M99.7433 551.727H98.0946C98.0946 549.404 98.7541 494.818 114.268 485.92C115.744 484.967 117.428 484.381 119.178 484.212C120.928 484.043 122.693 484.295 124.325 484.948C133.722 488.82 138.371 505.527 138.569 506.236L136.921 506.664C136.921 506.499 132.288 490.039 123.649 486.464C122.247 485.915 120.735 485.71 119.238 485.864C117.741 486.019 116.302 486.53 115.043 487.354C100.386 495.757 99.7433 551.167 99.7433 551.727Z" fill="#263238"/>
<path d="M93.6915 551.758L92.0429 551.659C92.0429 551.231 94.384 508.541 82.8598 493.514C80.0736 489.873 77.04 488.143 73.8416 488.357C66.2907 488.884 59.9764 499.89 59.9104 500.039L58.4761 499.231C58.7563 498.737 65.3015 487.303 73.7262 486.709C77.5016 486.446 81.0298 488.357 84.1787 492.509C96.0656 508.03 93.7904 549.979 93.6915 551.758Z" fill="#263238"/>
<path d="M96.1825 557.576C95.8693 553.424 88.6482 455.917 101.359 438.732L102.678 439.721C90.3298 456.411 97.7323 556.439 97.8312 557.444L96.1825 557.576Z" fill="#263238"/>
<path d="M127.771 494.833C127.771 494.833 120.154 497.634 122.413 504.274C124.672 510.914 148.792 521.822 148.792 521.822C148.792 521.822 158.898 512.562 149.616 497.519C140.334 482.476 127.986 490.088 127.771 494.833Z" fill="#11845B"/>
<path d="M94.6813 482.195C94.6813 482.195 102.793 481.865 103.254 488.785C103.716 495.705 85.6631 515.147 85.6631 515.147C85.6631 515.147 72.787 510.501 75.5568 493.036C78.3265 475.571 92.604 477.894 94.6813 482.195Z" fill="#11845B"/>
<path d="M87.7571 448.733C87.7571 448.733 93.1647 448.14 92.7031 444.845C92.2415 441.549 71.6497 433.081 59.499 446.789C59.499 446.789 67.2807 460.151 78.5411 460.333C89.8014 460.514 87.7571 448.733 87.7571 448.733Z" fill="#11845B"/>
<path d="M97.8469 440.724C97.8469 440.724 92.9009 443.097 91.5655 440.065C90.23 437.034 103.106 418.943 120.763 424.166C120.763 424.166 121.241 439.621 111.778 445.717C102.315 451.813 97.8469 440.724 97.8469 440.724Z" fill="#05C168"/>
<path d="M72.2096 492.164C72.2096 492.164 75.9521 489.149 71.9129 487.683C67.8736 486.216 48.1062 486.628 47.8918 506.202C47.8918 506.202 70.9731 510.041 73.7923 502.578C76.6116 495.114 72.2096 492.164 72.2096 492.164Z" fill="#05C168"/>
<path d="M119.198 448.237C119.198 448.237 115.456 445.222 119.495 443.755C123.534 442.289 143.318 442.701 143.516 462.275C143.516 462.275 120.435 466.114 117.615 458.65C114.796 451.186 119.198 448.237 119.198 448.237Z" fill="#05C168"/>
<path d="M107.014 464.006C107.014 464.006 106.684 460.348 109.652 461.781C112.62 463.215 122.841 474.336 112.24 484.848C112.24 484.848 97.8475 474.188 100.436 468.652C103.024 463.116 107.014 464.006 107.014 464.006Z" fill="#05C168"/>
<path d="M68.879 469.228C68.879 469.228 71.1047 466.312 67.8403 465.933C64.576 465.554 49.9029 469.475 53.3156 484.057C53.3156 484.057 71.1706 482.706 71.9455 476.643C72.7203 470.579 68.879 469.228 68.879 469.228Z" fill="#05C168"/>
<path d="M129.206 606H67.9234L61.3286 538.958H135.817L129.206 606Z" fill="#6E7191"/>
<path opacity="0.7" d="M129.206 606H67.9234L61.3286 538.958H135.817L129.206 606Z" fill="white"/>
<path d="M139.081 531.559H58.0477V546.355H139.081V531.559Z" fill="#211F54"/>
<path opacity="0.5" d="M139.081 531.559H58.0477V546.355H139.081V531.559Z" fill="white"/>
<g opacity="0.3">
<path d="M580.872 0H476.937V135.448L580.872 138.051V0Z" fill="#A0A3BD"/>
<path d="M574.023 4.82397H483.08V127.658L574.023 130.719V4.82397Z" fill="white"/>
<path d="M558.11 27.13L497.763 24.8429V110.696H558.11V27.13Z" fill="#CEE5FF"/>
<path d="M497.763 110.696L558.11 66.5908L497.763 24.8429V110.696Z" fill="#0075FF"/>
</g>
<path d="M87.2941 190.722C87.2941 204.821 110.116 216.241 138.364 216.241C166.612 216.241 189.434 204.821 189.434 190.722H87.2941Z" fill="#3F37A0"/>
<path d="M87.2941 171.607C87.2941 185.706 110.116 197.126 138.364 197.126C166.612 197.126 189.434 185.674 189.434 171.607H87.2941Z" fill="#4B3CFB"/>
<path d="M292.531 331.813C292.531 345.912 310.788 357.332 333.291 357.332C355.794 357.332 373.923 345.848 373.923 331.813H292.531Z" fill="#1D53BB"/>
<path d="M292.534 312.73C292.534 326.829 310.791 338.249 333.294 338.249C355.796 338.249 374.022 326.829 374.022 312.73H292.534Z" fill="#0075FF"/>
<path d="M454.589 437.162C454.589 439.16 472.53 483.972 472.53 483.972L515.881 501.122L509.401 512.914C509.401 512.914 464.1 510.576 457.12 506.728C450.139 502.881 442.879 493.387 442.879 493.387L430.179 447.415L454.589 437.162Z" fill="#FFBF9D"/>
<path d="M473.55 483.783C468.446 485.289 464.057 488.586 461.19 493.067C461.437 492.317 461.809 491.614 462.29 490.988C464.472 487.822 467.634 485.459 471.29 484.263C472.01 483.973 472.774 483.811 473.55 483.783Z" fill="#FF9A6C"/>
<path d="M419.309 461.446V514.713L442.429 577.754H460.759L447.469 504.479L450.419 451.912L419.309 461.446Z" fill="#FFBF9D"/>
<path d="M456.4 553.809C456.319 553.607 456.262 553.396 456.23 553.18C456.14 552.72 456.01 552.12 455.86 551.381C455.54 549.752 455.1 547.493 454.57 544.735L450.51 522.749C449.29 515.903 448.16 509.587 447.25 504.47C447.5 500.563 447.71 497.345 447.87 495.016C447.95 493.937 448.02 493.067 448.07 492.408C448.079 492.098 448.116 491.791 448.18 491.488C448.21 491.797 448.21 492.109 448.18 492.418C448.18 493.084 448.15 493.953 448.09 495.026C447.99 497.355 447.84 500.582 447.66 504.49V504.44C448.6 509.547 449.76 515.863 451.02 522.699C452.54 531.253 453.92 538.989 454.93 544.685C455.4 547.453 455.78 549.682 456.06 551.351C456.17 552.1 456.26 552.7 456.34 553.17C456.38 553.381 456.4 553.595 456.4 553.809Z" fill="#FF9A6C"/>
<path d="M286.396 582.831L265.556 576.235C265.556 576.235 239.115 592.575 234.665 589.536L269.296 545.104L277.536 552.989L283.156 554.089L304.396 567.61L286.396 582.831Z" fill="#4A4566"/>
<path d="M278.176 563.993C278.376 563.463 278.375 562.878 278.172 562.349C277.97 561.82 277.579 561.384 277.076 561.124C276.555 560.905 275.97 560.893 275.441 561.09C274.911 561.287 274.477 561.678 274.226 562.184C274.023 562.74 274.03 563.351 274.246 563.903C274.461 564.455 274.87 564.909 275.396 565.182C275.964 565.358 276.577 565.308 277.109 565.041C277.64 564.775 278.048 564.313 278.246 563.753" fill="#CFE5FF"/>
<path d="M268.395 544.355L271.875 547.033L238.295 589.546C238.295 589.546 235.895 590.856 234.675 589.546L268.395 544.355Z" fill="#211F54"/>
<path d="M265.206 577.134C264.986 576.955 265.736 575.795 265.876 574.186C266.016 572.577 265.536 571.288 265.776 571.188C266.016 571.088 267.026 572.357 266.826 574.306C266.626 576.255 265.396 577.334 265.206 577.134Z" fill="#211F54"/>
<path d="M259.635 580.333C259.395 580.213 259.755 578.983 259.415 577.534C259.075 576.085 258.265 575.116 258.415 574.906C258.565 574.696 259.935 575.516 260.325 577.324C260.715 579.133 259.855 580.442 259.635 580.333Z" fill="#211F54"/>
<path d="M251.996 578.594C252.106 578.354 253.426 578.903 254.176 580.382C254.926 581.862 254.616 583.251 254.366 583.201C254.116 583.151 253.966 582.031 253.366 580.822C252.766 579.613 251.846 578.823 251.996 578.594Z" fill="#211F54"/>
<path d="M500.04 322.343C501.325 321.781 502.753 321.631 504.127 321.914C505.5 322.197 506.752 322.898 507.71 323.922C509.773 323.952 511.767 324.671 513.374 325.964C514.981 327.257 516.11 329.05 516.58 331.057C517.992 331.233 519.334 331.772 520.475 332.62C521.616 333.469 522.517 334.599 523.092 335.899C523.666 337.2 523.893 338.627 523.751 340.041C523.608 341.456 523.102 342.809 522.28 343.969C523.545 344.664 524.559 345.739 525.179 347.042C525.799 348.344 525.994 349.809 525.735 351.228C525.476 352.647 524.777 353.949 523.738 354.949C522.698 355.949 521.369 356.597 519.94 356.801C520.861 358.154 521.247 359.801 521.023 361.421C520.798 363.042 519.98 364.522 518.727 365.574C517.473 366.627 515.873 367.177 514.237 367.118C512.601 367.059 511.045 366.396 509.87 365.256L496.29 329.209C496.127 327.817 496.4 326.409 497.072 325.179C497.744 323.949 498.781 322.958 500.04 322.343V322.343Z" fill="#211F54"/>
<path d="M510.061 366.576C513.922 360.681 515.416 353.548 514.244 346.601C513.072 339.654 509.322 333.404 503.741 329.099L502.601 328.21C489.661 319.365 474.91 325.402 466.41 338.563L436.289 381.147L433.979 387.643L442.11 413.767L456.11 411.708L467.11 400.525C467.11 400.525 480.44 407.88 489.801 396.098C494.281 390.451 502.641 377.949 510.061 366.576Z" fill="#FFBF9D"/>
<path d="M467.19 400.585C461.663 396.311 457.478 390.543 455.13 383.965C455.13 383.965 451.49 395.358 464.19 403.473L467.19 400.585Z" fill="#FF9A6C"/>
<path d="M498.091 374.92C497.75 375.375 497.243 375.676 496.681 375.759C496.119 375.841 495.547 375.698 495.091 375.36C494.861 375.21 494.663 375.015 494.51 374.788C494.357 374.56 494.251 374.304 494.199 374.034C494.147 373.765 494.149 373.488 494.206 373.219C494.263 372.951 494.373 372.697 494.531 372.472C494.698 372.246 494.909 372.055 495.151 371.91C495.393 371.766 495.66 371.67 495.939 371.629C496.218 371.588 496.502 371.603 496.775 371.672C497.048 371.741 497.305 371.864 497.531 372.032C497.76 372.182 497.958 372.377 498.111 372.604C498.264 372.832 498.37 373.088 498.422 373.358C498.474 373.627 498.472 373.904 498.415 374.173C498.358 374.441 498.248 374.695 498.091 374.92Z" fill="#211F54"/>
<path d="M502.661 371.113C502.281 371.173 501.731 369.224 499.901 367.815C498.071 366.406 496.021 366.286 496.001 365.906C496.001 365.736 496.501 365.496 497.411 365.526C498.628 365.587 499.796 366.028 500.751 366.785C501.708 367.515 502.409 368.53 502.751 369.684C502.971 370.553 502.851 371.103 502.661 371.113Z" fill="#211F54"/>
<path d="M481.81 363.578C481.47 364.032 480.964 364.334 480.402 364.418C479.841 364.502 479.269 364.362 478.81 364.028C478.581 363.877 478.385 363.682 478.233 363.454C478.08 363.226 477.975 362.97 477.923 362.701C477.871 362.432 477.873 362.156 477.929 361.887C477.985 361.619 478.094 361.365 478.25 361.14C478.589 360.683 479.095 360.38 479.657 360.296C480.22 360.211 480.792 360.353 481.25 360.69C481.479 360.841 481.675 361.036 481.828 361.264C481.98 361.491 482.086 361.747 482.138 362.016C482.19 362.285 482.188 362.562 482.131 362.83C482.075 363.098 481.966 363.353 481.81 363.578V363.578Z" fill="#211F54"/>
<path d="M485.4 357.331C485.02 357.391 484.47 355.442 482.63 354.033C480.79 352.624 478.75 352.504 478.73 352.124C478.73 351.945 479.23 351.715 480.15 351.745C481.365 351.809 482.531 352.245 483.49 352.994C484.449 353.726 485.15 354.745 485.49 355.902C485.67 356.762 485.55 357.311 485.4 357.331Z" fill="#211F54"/>
<path d="M480.9 375.53C482.098 375.98 483.236 376.574 484.29 377.299C484.79 377.609 485.29 377.859 485.63 377.599C486.043 377.149 486.308 376.584 486.39 375.98C486.83 374.511 487.28 372.982 487.76 371.353C489.76 364.817 491.6 359.58 491.86 359.66C492.12 359.74 490.71 365.117 488.71 371.653C488.21 373.265 487.73 374.797 487.27 376.25C487.122 377.033 486.704 377.74 486.09 378.249C485.895 378.362 485.676 378.43 485.451 378.445C485.225 378.461 484.999 378.424 484.79 378.338C484.481 378.208 484.189 378.04 483.92 377.839C482.823 377.196 481.809 376.421 480.9 375.53V375.53Z" fill="#211F54"/>
<path d="M474.54 372.632C474.85 372.852 473.32 374.83 473.93 377.559C474.54 380.287 476.82 381.696 476.62 381.986C476.55 382.126 475.85 381.986 474.94 381.336C473.767 380.455 472.942 379.188 472.61 377.759C472.299 376.393 472.528 374.961 473.25 373.761C473.81 372.842 474.4 372.522 474.54 372.632Z" fill="#211F54"/>
<path d="M489.4 352.134C488.81 352.434 487.57 350.795 485.63 349.346C483.69 347.897 481.79 347.057 481.96 346.438C482.05 346.148 482.7 345.958 483.69 346.078C484.935 346.252 486.111 346.752 487.1 347.527C488.096 348.27 488.874 349.268 489.35 350.415C489.74 351.315 489.71 351.974 489.4 352.134Z" fill="#211F54"/>
<path d="M506.131 365.786C505.501 366.006 504.471 364.676 502.871 363.617C501.271 362.558 499.721 361.978 499.701 361.319C499.701 361.009 500.211 360.709 501.081 360.679C502.203 360.7 503.294 361.053 504.216 361.693C505.138 362.333 505.85 363.233 506.261 364.277C506.531 365.096 506.401 365.666 506.131 365.786Z" fill="#211F54"/>
<path d="M513.141 360.23C513.141 360.23 515.771 350.356 513.531 345.839C510.801 340.372 505.241 343.7 501.991 339.333C498.741 334.965 496.151 329.739 489.431 329.659C482.08 329.579 482.35 333.716 477.98 338.773C460.25 359.27 451.66 362.288 458.35 351.355C459.08 350.156 456.69 346.908 459.85 341.891C463.95 335.395 469.4 327.9 474.08 324.622C478.02 321.883 482.02 320.984 487.851 321.084C497.061 321.254 505.161 327.37 510.181 332.137C515.201 336.904 520.861 351.295 513.141 360.23Z" fill="#211F54"/>
<path d="M459.4 351.615C459.722 351.167 459.95 350.658 460.071 350.12C460.191 349.581 460.201 349.024 460.1 348.481C459.999 347.939 459.79 347.422 459.484 346.963C459.177 346.503 458.782 346.111 458.32 345.808C455.94 344.309 452.49 343.66 449.09 348.347C443.09 356.682 452.67 361.019 452.85 360.789C453.03 360.559 456.86 355.123 459.4 351.615Z" fill="#FFBF9D"/>
<path d="M453.269 356.342C453.269 356.292 453.049 356.342 452.719 356.272C452.268 356.171 451.874 355.898 451.619 355.513C450.979 354.513 451.25 352.615 452.289 351.086C452.791 350.359 453.446 349.751 454.209 349.307C454.476 349.102 454.788 348.965 455.119 348.907C455.45 348.85 455.79 348.874 456.109 348.977C456.303 349.055 456.464 349.197 456.568 349.378C456.671 349.559 456.711 349.77 456.679 349.976C456.619 350.296 456.439 350.416 456.479 350.466C456.519 350.516 456.759 350.466 456.939 350.066C457.028 349.821 457.028 349.552 456.939 349.307C456.836 348.965 456.603 348.678 456.29 348.507C455.898 348.33 455.467 348.255 455.039 348.29C454.61 348.325 454.197 348.468 453.839 348.707C452.957 349.184 452.205 349.871 451.649 350.706C450.489 352.425 450.209 354.613 451.159 355.833C451.336 356.06 451.562 356.245 451.82 356.373C452.078 356.501 452.361 356.569 452.649 356.572C453.109 356.532 453.289 356.382 453.269 356.342Z" fill="#FF9A6C"/>
<path d="M471.71 335.995C472.083 337.574 472.847 339.034 473.93 340.242C475.1 341.361 477.13 341.751 478.32 340.662C478.85 340.172 479.22 339.403 479.93 339.253C480.64 339.103 481.47 339.872 482.1 340.472C483.218 341.484 484.65 342.081 486.156 342.163C487.662 342.245 489.15 341.807 490.371 340.922C490.271 342.291 491.711 343.34 493.081 343.46C494.455 343.433 495.819 343.211 497.131 342.8C497.79 342.604 498.487 342.571 499.161 342.705C499.836 342.839 500.467 343.136 501.001 343.57C501.541 344.12 501.821 344.909 502.471 345.329C503.611 346.058 505.101 345.209 506.081 344.33C507.061 343.45 508.151 342.251 509.501 342.331C510.851 342.411 511.601 343.59 512.501 344.499C513.401 345.409 514.821 346.148 515.821 345.389C516.062 345.163 516.254 344.891 516.387 344.588C516.519 344.286 516.589 343.96 516.591 343.63C516.69 342.136 516.284 340.653 515.437 339.418C514.589 338.183 513.351 337.27 511.921 336.824C512.584 335.16 512.735 333.336 512.355 331.586C511.974 329.835 511.079 328.238 509.785 326.999C508.49 325.761 506.855 324.936 505.089 324.632C503.323 324.327 501.506 324.557 499.871 325.291C499.612 323.841 499.007 322.474 498.107 321.307C497.207 320.14 496.038 319.207 494.701 318.588C493.363 317.968 491.896 317.679 490.423 317.747C488.95 317.814 487.516 318.236 486.24 318.975C485.447 317.94 484.367 317.161 483.134 316.736C481.901 316.311 480.57 316.258 479.307 316.585C478.044 316.911 476.905 317.601 476.032 318.57C475.16 319.54 474.592 320.744 474.4 322.033C472.3 321.734 469.92 322.213 468.59 323.872C467.26 325.531 467.59 328.479 469.59 329.299C468.758 329.713 468.113 330.427 467.786 331.297C467.458 332.167 467.473 333.129 467.827 333.989C468.18 334.849 468.846 335.543 469.691 335.931C470.536 336.32 471.497 336.375 472.38 336.085" fill="#211F54"/>
<path d="M468.95 328.819C468.696 329.072 468.502 329.378 468.381 329.715C468.26 330.052 468.215 330.411 468.25 330.768C468.251 331.596 468.561 332.394 469.12 333.006C469.482 333.39 469.924 333.689 470.415 333.883C470.906 334.076 471.433 334.159 471.96 334.126L471.66 333.806C471.502 334.894 471.519 336.001 471.71 337.084C471.833 337.816 472.095 338.518 472.48 339.152C472.853 339.751 473.377 340.241 474 340.572C474.495 340.896 475.056 341.106 475.642 341.187C476.228 341.268 476.825 341.218 477.39 341.041C478.126 340.781 478.806 340.38 479.39 339.862C479.8 339.512 479.98 339.282 479.96 339.252C479.94 339.222 479.69 339.392 479.25 339.682C478.657 340.117 477.999 340.454 477.3 340.681C476.728 340.796 476.138 340.79 475.568 340.664C474.998 340.538 474.461 340.294 473.991 339.949C473.52 339.604 473.127 339.165 472.836 338.66C472.545 338.154 472.362 337.594 472.3 337.014C472.123 335.99 472.099 334.946 472.23 333.916V333.566H471.88C471.432 333.6 470.983 333.537 470.562 333.381C470.141 333.226 469.758 332.982 469.44 332.666C468.929 332.156 468.621 331.478 468.57 330.758C468.566 330.093 468.695 329.433 468.95 328.819V328.819Z" fill="#4A4566"/>
<path d="M498.701 322.134C498.701 322.134 498.871 322.363 499.111 322.793C499.451 323.401 499.601 324.098 499.541 324.792V325.022L499.771 324.962C501.857 324.373 504.06 324.325 506.171 324.822C507.532 325.144 508.81 325.75 509.921 326.601C510.996 327.449 511.851 328.544 512.411 329.794C512.972 331.043 513.222 332.409 513.141 333.776C513.066 334.888 512.723 335.965 512.141 336.914L511.971 337.194L512.271 337.314C513.636 337.887 514.73 338.96 515.331 340.312C515.787 341.388 515.896 342.58 515.641 343.72C515.377 344.735 514.919 345.689 514.291 346.528C514.528 346.371 514.735 346.171 514.901 345.939C515.405 345.31 515.769 344.581 515.971 343.8C516.29 342.589 516.213 341.307 515.751 340.142C515.143 338.635 513.964 337.428 512.471 336.784L512.601 337.184C513.249 336.161 513.634 334.994 513.721 333.786C513.815 332.323 513.55 330.858 512.949 329.521C512.348 328.183 511.428 327.012 510.271 326.111C509.083 325.225 507.719 324.605 506.271 324.292C504.078 323.805 501.794 323.919 499.661 324.622L499.861 324.792C499.906 324.023 499.695 323.26 499.261 322.623C499.111 322.422 498.92 322.255 498.701 322.134V322.134Z" fill="#4A4566"/>
<path d="M374.878 502.541C374.878 502.541 431.649 537.13 434.939 546.594C436.889 552.2 442.73 582.351 417.939 583.741C391.788 585.2 270.936 583.741 270.936 583.741L283.236 551.181L309.857 552.35L354.638 552.87C354.638 552.87 304.237 532.053 293.226 514.893C279.456 493.387 300.766 461.637 300.766 461.637L374.878 502.541Z" fill="#211F54"/>
<path d="M401.469 569.709C401.275 569.698 401.083 569.661 400.899 569.599L399.289 569.19C397.909 568.79 395.919 568.19 393.488 567.341C388.618 565.682 381.968 563.193 374.668 560.345C367.368 557.497 360.798 554.779 356.058 552.79L350.458 550.401L348.947 549.722C348.766 549.655 348.594 549.565 348.438 549.452C348.625 549.499 348.809 549.559 348.987 549.632L350.538 550.212L356.198 552.45L374.858 559.856C382.158 562.724 388.778 565.262 393.608 567.011C396.019 567.901 397.989 568.56 399.349 569.01L400.929 569.51C401.115 569.559 401.295 569.626 401.469 569.709Z" fill="#4A4566"/>
<path d="M537.031 511.525C536.715 510.043 536.051 508.657 535.093 507.482C534.134 506.307 532.91 505.377 531.521 504.769C530.125 504.18 528.621 503.892 527.107 503.923C525.592 503.954 524.101 504.304 522.731 504.949C521.607 505.42 520.635 506.191 519.921 507.178C519.569 507.674 519.344 508.249 519.268 508.852C519.191 509.455 519.264 510.068 519.481 510.636L521.181 510.216C525.782 511.803 530.555 512.84 535.401 513.304C535.639 513.356 535.885 513.359 536.124 513.312C536.363 513.266 536.59 513.171 536.791 513.034C536.951 512.821 537.056 512.572 537.098 512.309C537.139 512.046 537.117 511.777 537.031 511.525Z" fill="#CFE5FF"/>
<path d="M498.901 493.067C499.371 493.227 511.061 498.684 511.061 498.684L528.521 498.614C529.39 498.604 530.235 498.898 530.911 499.443L539.912 506.659L543.772 517.082C543.772 517.082 544.212 520.18 540.832 517.592C537.452 515.004 531.831 506.919 531.831 506.919L523.601 505.38L511.521 515.483L490.651 512.945C490.651 512.945 491.051 508.867 494.531 501.952C498.011 495.036 498.901 493.067 498.901 493.067Z" fill="#CFE5FF"/>
<path d="M534.751 514.613L526.111 511.785L514.911 504.62L507.841 513.954C507.841 513.954 515.331 516.792 518.631 517.951C523.414 519.403 528.405 520.052 533.401 519.87C535.691 519.68 537.131 518.211 537.401 517.192C537.671 516.172 536.171 515.373 534.751 514.613Z" fill="#CFE5FF"/>
<path d="M525.961 504.53C526.661 504.742 527.332 505.038 527.961 505.409C529.181 506.019 530.841 506.888 532.661 507.878C533.134 508.112 533.572 508.412 533.961 508.767C534.313 509.108 534.612 509.499 534.851 509.926C535.226 510.637 535.559 511.367 535.851 512.115C536.361 513.364 536.851 514.004 536.851 514.054C536.259 513.593 535.806 512.977 535.541 512.275C534.901 511.086 534.331 509.167 532.431 508.337C530.611 507.338 528.971 506.429 527.801 505.739C527.144 505.408 526.526 505.002 525.961 504.53V504.53Z" fill="#211F54"/>
<path d="M537.311 517.192C537.251 517.192 537.381 516.852 537.081 516.402C536.6 515.801 535.978 515.328 535.271 515.023C532.916 513.944 530.461 513.097 527.941 512.495C527.301 512.325 526.661 512.175 526.061 512.035C523.801 510.736 521.891 509.496 520.471 508.707C519.689 508.323 518.931 507.892 518.201 507.418C519.051 507.644 519.868 507.98 520.631 508.417C522.111 509.127 524.061 510.316 526.311 511.585H526.241C526.861 511.715 527.491 511.875 528.141 512.045C530.701 512.648 533.179 513.557 535.521 514.753C536.257 515.114 536.882 515.666 537.331 516.352C537.398 516.483 537.431 516.628 537.428 516.774C537.424 516.921 537.384 517.064 537.311 517.192V517.192Z" fill="#211F54"/>
<path d="M500.401 492.627L491.531 514.233C491.391 514.569 491.124 514.835 490.789 514.973C490.453 515.112 490.076 515.112 489.741 514.973V514.973C489.575 514.905 489.424 514.805 489.297 514.679C489.17 514.552 489.07 514.402 489.001 514.237C488.932 514.072 488.897 513.895 488.897 513.716C488.897 513.537 488.932 513.359 489.001 513.194L497.871 491.587C498.01 491.252 498.277 490.986 498.612 490.847C498.948 490.709 499.325 490.709 499.661 490.848V490.848C499.826 490.916 499.977 491.016 500.104 491.142C500.231 491.268 500.332 491.418 500.4 491.584C500.469 491.749 500.505 491.926 500.505 492.105C500.505 492.284 500.469 492.461 500.401 492.627V492.627Z" fill="#CFE5FF"/>
<path d="M500.231 492.757C499.984 493.835 499.65 494.891 499.231 495.915C498.541 497.844 497.531 500.482 496.321 503.36C495.111 506.238 493.951 508.817 493.061 510.666C492.632 511.684 492.117 512.664 491.521 513.594C491.845 512.538 492.249 511.509 492.731 510.516C493.581 508.517 494.651 505.959 495.841 503.16L498.891 495.785C499.26 494.743 499.708 493.731 500.231 492.757V492.757Z" fill="#211F54"/>
<path d="M480.401 574.337L475.03 572.428C473.34 572.288 461.84 570.899 461.84 570.899L458.08 556.028L437.08 566.831C437.08 566.831 440.79 581.112 443.74 583.731C446.69 586.349 475.04 588.528 478.631 588.788C479.602 588.903 480.588 588.824 481.529 588.555C482.47 588.286 483.347 587.831 484.111 587.219C484.111 587.219 492.761 587.868 494.871 587.219C496.981 586.569 496.771 585.12 496.771 585.12C496.771 585.12 499.511 584.59 500.191 583.121C500.621 581.172 498.791 580.013 496.941 579.274C491.221 577.035 480.401 574.337 480.401 574.337Z" fill="#CFE5FF"/>
<path d="M458.999 556.797L437.769 566.561C437.607 566.637 437.432 566.68 437.253 566.688C437.074 566.695 436.896 566.668 436.727 566.607C436.559 566.545 436.405 566.452 436.273 566.331C436.141 566.21 436.035 566.064 435.959 565.901V565.901C435.809 565.571 435.795 565.195 435.921 564.854C436.046 564.514 436.301 564.237 436.629 564.082L457.859 554.349C458.022 554.273 458.197 554.23 458.376 554.222C458.555 554.214 458.733 554.242 458.901 554.303C459.07 554.364 459.224 554.458 459.356 554.579C459.488 554.7 459.594 554.846 459.669 555.008C459.813 555.335 459.823 555.705 459.698 556.039C459.573 556.373 459.322 556.645 458.999 556.797Z" fill="#CFE5FF"/>
<path d="M458.329 557.617C457.29 558.089 456.225 558.503 455.139 558.856C453.139 559.586 450.449 560.655 447.519 561.984C444.589 563.313 442.009 564.642 440.149 565.652C439.183 566.239 438.181 566.767 437.149 567.231C437.363 567.008 437.609 566.819 437.879 566.671C438.369 566.331 439.089 565.872 439.999 565.332C444.751 562.512 449.798 560.223 455.049 558.506C456.049 558.186 456.879 557.937 457.449 557.797C457.732 557.692 458.029 557.631 458.329 557.617Z" fill="#211F54"/>
<path d="M461.88 570.908C461.88 571.058 459.88 571.568 457.55 572.517C455.22 573.467 453.4 574.516 453.32 574.346C454.49 573.322 455.848 572.534 457.32 572.028C458.753 571.364 460.301 570.983 461.88 570.908V570.908Z" fill="#211F54"/>
<path d="M484.18 587.228C484.18 587.228 484.25 587.038 484.35 586.698C484.483 586.231 484.462 585.734 484.29 585.279L484.39 585.369C482.75 584.949 480.2 584.23 477.39 583.37C474.89 582.631 472.65 581.931 471.03 581.372C470.139 581.117 469.272 580.782 468.44 580.372C469.355 580.483 470.257 580.687 471.13 580.982C472.78 581.422 475.04 582.061 477.53 582.801C480.38 583.65 482.91 584.44 484.53 584.979H484.62V585.039C484.796 585.566 484.771 586.139 484.55 586.648C484.4 587.098 484.2 587.238 484.18 587.228Z" fill="#211F54"/>
<path d="M474.74 577.015C475.075 576.985 475.413 577.009 475.74 577.085C476.36 577.175 477.24 577.325 478.33 577.565C481.139 578.223 483.913 579.023 486.64 579.963C489.85 581.042 492.73 581.962 494.87 582.611C495.313 582.72 495.727 582.921 496.086 583.202C496.444 583.483 496.739 583.837 496.95 584.24C497.038 584.39 497.092 584.557 497.108 584.73C497.123 584.903 497.1 585.077 497.04 585.24C496.998 584.931 496.907 584.63 496.77 584.35C496.545 584.001 496.251 583.699 495.908 583.464C495.565 583.229 495.178 583.065 494.77 582.981C492.64 582.431 489.69 581.552 486.5 580.483C483.31 579.413 480.39 578.484 478.26 577.944C476.13 577.405 474.73 577.095 474.74 577.015Z" fill="#211F54"/>
<path d="M300.766 461.576C298.276 456.709 302.346 453.581 304.876 451.912C324.247 439.43 384.708 399.095 396.328 391.68C409.989 382.965 429.549 381.156 429.549 381.156L438.359 374.161L463.78 407.44L460.78 418.503L458.63 433.624L380.028 493.856L380.118 499.313L375.788 502.931L335.567 484.942L300.766 461.576Z" fill="#0075FF"/>
<path d="M451.629 472.18L466.399 464.904C466.399 464.904 455.479 421.531 454.669 424C453.859 426.468 439.399 451.902 439.399 451.902L451.629 472.18Z" fill="#0075FF"/>
<path d="M451.619 472.209L439.399 451.902C439.549 451.652 453.869 426.438 454.669 424.009C454.669 423.929 454.729 423.89 454.779 423.89C454.899 423.89 455.259 423.89 457.179 430.336C458.179 433.743 459.529 438.48 461.119 444.427C463.829 454.56 466.409 464.814 466.439 464.914L451.619 472.209ZM439.399 451.902L451.599 472.139L466.399 464.894C466.269 464.374 463.739 454.341 461.079 444.427C459.489 438.43 458.159 433.733 457.139 430.326C455.559 425.049 454.989 423.93 454.789 423.92C454.789 423.92 454.739 423.92 454.719 423.999C453.909 426.428 439.839 451.213 439.399 451.902Z" fill="#211F54"/>
<path d="M454.88 463.905L464.7 458.409C465.036 458.221 465.412 458.117 465.796 458.103C466.181 458.089 466.563 458.167 466.912 458.33C467.26 458.493 467.565 458.737 467.801 459.04C468.037 459.344 468.198 459.7 468.27 460.077L470.01 469.322C470.113 469.873 470.022 470.443 469.752 470.935C469.482 471.427 469.05 471.81 468.53 472.02L455.86 477.147C455.468 477.306 455.042 477.359 454.623 477.302C454.204 477.245 453.808 477.079 453.473 476.822C453.138 476.564 452.877 476.223 452.715 475.833C452.553 475.443 452.496 475.017 452.55 474.598L453.66 465.724C453.706 465.347 453.841 464.985 454.053 464.669C454.265 464.353 454.548 464.092 454.88 463.905V463.905Z" fill="#0075FF"/>
<path d="M454.88 463.905C454.88 463.905 454.71 464.015 454.44 464.285C454.053 464.684 453.814 465.202 453.759 465.754C453.579 467.293 453.35 469.412 453.06 471.99C452.98 472.65 452.9 473.33 452.82 474.049C452.757 474.399 452.734 474.754 452.75 475.108C452.779 475.465 452.896 475.808 453.09 476.108C453.293 476.412 453.568 476.663 453.89 476.837C454.213 477.011 454.573 477.104 454.94 477.107C455.333 477.094 455.718 476.995 456.07 476.817L457.269 476.328L467.81 472.04C468.264 471.904 468.691 471.687 469.07 471.401C469.399 471.1 469.629 470.706 469.729 470.272C469.819 469.827 469.798 469.367 469.669 468.932C469.579 468.453 469.49 467.983 469.41 467.513C469.06 465.644 468.73 463.836 468.41 462.117C468.33 461.687 468.249 461.257 468.169 460.847C468.12 460.446 468.029 460.051 467.9 459.668C467.688 459.165 467.296 458.758 466.8 458.529C466.304 458.3 465.74 458.264 465.22 458.429C464.888 458.549 464.57 458.703 464.269 458.889L462.449 459.888L456.94 462.886L455.43 463.676C455.255 463.778 455.071 463.862 454.88 463.925C455.025 463.788 455.19 463.674 455.37 463.586L456.84 462.706L462.269 459.568L464.07 458.569C464.385 458.366 464.72 458.196 465.07 458.059C465.469 457.929 465.895 457.898 466.31 457.969C466.746 458.038 467.159 458.217 467.508 458.488C467.858 458.758 468.133 459.113 468.31 459.518C468.457 459.929 468.561 460.355 468.62 460.787C468.7 461.207 468.79 461.627 468.87 462.057C469.2 463.776 469.54 465.584 469.87 467.453L470.139 468.862C470.276 469.371 470.296 469.904 470.199 470.421C470.067 470.957 469.778 471.44 469.37 471.811C469.167 471.999 468.934 472.151 468.68 472.26L467.97 472.55L457.41 476.807L456.199 477.287C455.792 477.478 455.349 477.583 454.9 477.597C454.457 477.589 454.024 477.471 453.639 477.255C453.253 477.039 452.927 476.73 452.69 476.358C452.464 476.006 452.327 475.605 452.29 475.188C452.277 474.807 452.307 474.424 452.38 474.049L452.65 471.99C453.01 469.422 453.299 467.313 453.519 465.784C453.589 465.194 453.878 464.652 454.329 464.265C454.443 464.166 454.567 464.079 454.699 464.005L454.88 463.905Z" fill="#211F54"/>
<path d="M463.499 407.86C463.418 408.042 463.31 408.21 463.179 408.36L462.179 409.749C461.239 410.998 459.949 412.687 458.379 414.746L458.219 414.956L458.059 414.736C455.539 411.128 452.109 406.361 448.149 401.284C443.859 395.768 439.779 390.931 436.769 387.483L433.169 383.455L432.169 382.346C432.047 382.221 431.943 382.08 431.859 381.926C432.002 382.025 432.132 382.139 432.249 382.266L433.249 383.266C434.139 384.185 435.409 385.544 436.949 387.263C440.039 390.661 444.179 395.468 448.469 400.995C452.469 406.081 455.839 410.888 458.289 414.546H457.979L461.919 409.639C462.369 409.109 462.729 408.64 463.019 408.32C463.164 408.152 463.325 407.998 463.499 407.86V407.86Z" fill="#211F54"/>
<path d="M413.049 437.891V485.172L451.62 487.82C452.319 485.09 452.807 482.31 453.08 479.505C453.42 469.411 457.46 449.174 458.22 445.526C462.22 426.188 458.62 406.431 436.439 406.431" fill="#0075FF"/>
<path d="M436.399 406.44H438.249C440.018 406.51 441.776 406.748 443.499 407.15C446.718 407.834 449.706 409.332 452.18 411.5C454.654 413.668 456.53 416.433 457.63 419.532C459.184 423.777 459.927 428.275 459.82 432.794C459.73 437.952 459.087 443.084 457.9 448.105C456.9 453.441 455.84 459.048 454.9 464.884C454.46 467.802 454.04 470.78 453.71 473.809C453.55 475.318 453.41 476.807 453.33 478.386C453.33 479.145 453.27 479.945 453.17 480.724C453.07 481.504 452.95 482.283 452.81 483.063C452.52 484.692 452.19 486.291 451.81 487.87L451.75 488.09H451.54L413.029 485.391H412.819V485.181C412.819 471.06 412.889 459.248 412.909 450.943C412.909 446.815 412.959 443.557 412.979 441.309C412.979 440.219 412.979 439.37 412.979 438.77V438.121C412.971 438.048 412.971 437.974 412.979 437.901C412.987 437.974 412.987 438.048 412.979 438.121C412.979 438.291 412.979 438.5 412.979 438.77C412.979 439.37 412.979 440.219 412.979 441.309C412.979 443.557 412.979 446.815 413.039 450.943C413.039 459.248 413.099 471.06 413.139 485.181L412.919 484.952L451.5 487.57L451.23 487.77C451.61 486.201 451.94 484.602 452.23 482.993C452.36 482.223 452.49 481.454 452.58 480.684C452.67 479.915 452.7 479.165 452.74 478.386C452.82 476.827 452.96 475.298 453.13 473.769C453.46 470.77 453.88 467.772 454.33 464.824C455.24 458.978 456.27 453.371 457.33 448.035C458.535 443.043 459.206 437.937 459.33 432.804C459.445 428.338 458.733 423.889 457.23 419.682C455.963 416.22 453.766 413.173 450.88 410.878C448.652 409.208 446.107 408.011 443.399 407.36C441.687 406.94 439.94 406.676 438.179 406.57L436.809 406.5C436.671 406.489 436.535 406.469 436.399 406.44Z" fill="#211F54"/>
<path d="M429.899 404.802C429.949 404.882 428.659 405.631 426.759 407.081C421.78 410.867 417.867 415.876 415.399 421.622C414.459 423.81 414.049 425.249 413.959 425.219C413.983 424.878 414.054 424.542 414.169 424.22C414.414 423.301 414.711 422.397 415.059 421.512C417.37 415.604 421.352 410.496 426.519 406.811C427.295 406.259 428.099 405.749 428.929 405.282C429.23 405.08 429.556 404.919 429.899 404.802Z" fill="#211F54"/>
<path d="M425.229 408.01C425.159 408.01 424.519 406.75 423.399 404.712C420.489 399.399 417.027 394.407 413.069 389.821C411.549 388.062 410.559 387.003 410.619 386.953C410.905 387.135 411.167 387.353 411.399 387.602C411.879 388.052 412.539 388.722 413.339 389.601C415.411 391.835 417.323 394.213 419.059 396.717C420.794 399.221 422.355 401.842 423.729 404.562C424.249 405.611 424.639 406.47 424.889 407.07C425.045 407.366 425.159 407.682 425.229 408.01V408.01Z" fill="#211F54"/>
<path d="M451.719 491.488H413.849C413.259 491.486 412.691 491.265 412.255 490.868C411.819 490.471 411.546 489.926 411.489 489.339L410.489 478.296C410.458 477.969 410.496 477.64 410.6 477.328C410.704 477.017 410.872 476.731 411.094 476.488C411.315 476.245 411.584 476.051 411.885 475.919C412.185 475.786 412.51 475.718 412.839 475.718H453.089C453.423 475.722 453.753 475.797 454.056 475.938C454.36 476.079 454.63 476.283 454.848 476.536C455.067 476.789 455.229 477.086 455.324 477.407C455.418 477.728 455.444 478.065 455.399 478.396L454.039 489.389C453.973 489.961 453.701 490.489 453.275 490.876C452.848 491.262 452.295 491.479 451.719 491.488Z" fill="#0075FF"/>
<path d="M451.719 491.488C452.105 491.455 452.479 491.342 452.819 491.158C453.223 490.926 453.547 490.578 453.749 490.158C453.97 489.563 454.089 488.935 454.099 488.3C454.269 486.841 454.469 485.072 454.709 483.023C454.829 482.023 454.959 480.904 455.099 479.735C455.149 479.165 455.279 478.526 455.269 477.966C455.251 477.672 455.174 477.384 455.044 477.12C454.913 476.856 454.732 476.62 454.509 476.427C454.271 476.228 453.995 476.08 453.697 475.99C453.4 475.901 453.088 475.873 452.779 475.907H446.249H436.469H414.049C413.569 475.907 413.049 475.907 412.599 475.907C412.161 475.958 411.75 476.145 411.424 476.443C411.099 476.741 410.877 477.134 410.789 477.566C410.759 477.782 410.759 478 410.789 478.216L410.859 478.935C411.026 480.861 411.196 482.76 411.369 484.632C411.449 485.561 411.539 486.491 411.619 487.4L411.739 488.769C411.741 489.194 411.833 489.612 412.009 489.999C412.789 491.657 414.929 490.998 416.579 491.158L434.889 491.218L447.239 491.298L450.589 491.348H451.459C451.559 491.339 451.659 491.339 451.759 491.348H451.459H450.589H447.239L434.889 491.438H416.579H413.969C413.475 491.448 412.988 491.321 412.562 491.07C412.137 490.82 411.789 490.455 411.559 490.019C411.355 489.576 411.246 489.096 411.239 488.609L411.119 487.24C411.029 486.321 410.949 485.401 410.859 484.472C410.686 482.6 410.512 480.701 410.339 478.776L410.269 478.046C410.251 477.778 410.268 477.51 410.319 477.246C410.432 476.713 410.708 476.227 411.109 475.857C411.514 475.486 412.024 475.249 412.569 475.178C413.129 475.178 413.569 475.178 414.089 475.178H436.509H446.289H452.819C453.178 475.146 453.54 475.186 453.884 475.296C454.227 475.406 454.545 475.583 454.819 475.817C455.077 476.041 455.286 476.316 455.434 476.623C455.581 476.931 455.665 477.265 455.679 477.606C455.679 478.286 455.539 478.845 455.489 479.435C455.329 480.594 455.189 481.694 455.059 482.723C454.789 484.722 454.559 486.531 454.359 487.99C454.332 488.645 454.193 489.29 453.949 489.899C453.764 490.244 453.496 490.539 453.17 490.757C452.844 490.975 452.469 491.109 452.079 491.148C451.981 491.282 451.859 491.397 451.719 491.488Z" fill="#211F54"/>
<path d="M362.448 477.867C362.743 477.977 363.019 478.132 363.268 478.326C363.778 478.646 364.498 479.136 365.378 479.766C367.647 481.429 369.811 483.231 371.858 485.162C373.91 487.09 375.837 489.146 377.628 491.318C378.308 492.148 378.838 492.837 379.188 493.317C379.386 493.564 379.557 493.832 379.698 494.117C378.864 493.308 378.079 492.45 377.348 491.548C375.918 489.939 373.888 487.781 371.508 485.552C369.128 483.323 366.838 481.404 365.158 480.075C364.213 479.391 363.309 478.653 362.448 477.867V477.867Z" fill="#211F54"/>
<g opacity="0.3">
<path opacity="0.3" d="M409.869 470.951C410.129 470.751 410.069 436.323 411.499 432.195C412.079 430.246 412.913 428.381 413.979 426.649L413.049 468.523L409.869 470.951Z" fill="#133578"/>
</g>
<g opacity="0.3">
<path opacity="0.3" d="M433.849 384.005L459.049 417.694L462.309 409.379L458.199 414.636C458.199 414.636 436.499 385.544 433.849 384.005Z" fill="#133578"/>
</g>
<g opacity="0.3">
<path opacity="0.3" d="M413.049 475.718C413.049 475.718 435.189 470.841 452.909 475.718H413.049Z" fill="#133578"/>
</g>
<g opacity="0.3">
<path opacity="0.3" d="M369.907 484.192C366.147 479.775 360.617 477.297 355.147 475.368C349.677 473.439 343.987 471.9 339.087 468.792C338.365 468.405 337.752 467.841 337.307 467.153C337.091 466.807 336.991 466.401 337.023 465.994C337.056 465.587 337.218 465.201 337.487 464.894C338.187 464.225 339.317 464.435 340.247 464.714C351.458 468.106 361.5 474.553 369.247 483.333" fill="#133578"/>
</g>
<path d="M350.827 468.912C350.016 468.779 349.226 468.541 348.477 468.202C346.636 467.479 344.859 466.6 343.167 465.574C341.476 464.553 339.88 463.382 338.397 462.076C337.75 461.571 337.174 460.979 336.687 460.317C337.373 460.757 338.025 461.248 338.637 461.786C340.17 462.995 341.773 464.113 343.437 465.134C345.114 466.142 346.847 467.052 348.627 467.862C349.39 468.148 350.126 468.499 350.827 468.912V468.912Z" fill="#211F54"/>
<path d="M357.497 479.116C357.567 479.256 354.317 480.805 350.717 483.363C347.117 485.922 344.567 488.45 344.457 488.36C344.897 487.701 345.425 487.106 346.027 486.591C347.398 485.274 348.865 484.061 350.417 482.964C351.972 481.864 353.607 480.882 355.307 480.025C355.993 479.626 356.73 479.32 357.497 479.116V479.116Z" fill="#211F54"/>
<path d="M406.908 447.355C406.978 447.475 397.708 453.551 386.198 460.927C374.688 468.302 365.288 474.179 365.198 474.059C365.108 473.939 374.398 467.863 385.908 460.487C397.418 453.112 406.828 447.235 406.908 447.355Z" fill="#211F54"/>
<path d="M461.88 412.647C461.88 412.647 461.97 412.528 462.18 412.328C462.39 412.128 462.73 411.858 463.18 411.538C464.446 410.621 465.837 409.891 467.31 409.369C467.77 409.21 468.31 409.05 468.79 408.92L469.6 408.73C469.926 408.634 470.274 408.634 470.6 408.73C470.772 408.807 470.919 408.932 471.024 409.089C471.128 409.247 471.186 409.43 471.19 409.619C471.198 409.802 471.17 409.985 471.106 410.156C471.043 410.328 470.945 410.485 470.82 410.619C470.33 411.062 469.769 411.42 469.16 411.678C467.924 412.276 466.622 412.725 465.28 413.017C464.566 413.18 463.84 413.29 463.11 413.347C462.887 413.372 462.662 413.341 462.454 413.257C462.247 413.174 462.063 413.04 461.92 412.867C461.697 412.557 461.513 412.222 461.37 411.868C460.784 410.525 460.293 409.142 459.9 407.73C459.71 407.051 459.55 406.371 459.42 405.732C459.23 405.06 459.165 404.358 459.23 403.663C459.302 403.287 459.517 402.954 459.83 402.734C459.99 402.62 460.177 402.552 460.373 402.536C460.568 402.52 460.764 402.558 460.94 402.644C461.506 402.975 461.932 403.501 462.14 404.123C462.577 405.117 462.877 406.166 463.03 407.241C463.262 408.789 463.19 410.367 462.82 411.888C462.717 412.299 462.586 412.703 462.43 413.097C462.382 413.237 462.318 413.371 462.24 413.497C462.19 413.497 462.41 412.907 462.62 411.848C462.911 410.344 462.928 408.8 462.67 407.291C462.495 406.256 462.186 405.248 461.75 404.293C461.57 403.779 461.216 403.344 460.75 403.063C460.31 402.824 459.75 403.213 459.7 403.763C459.658 404.393 459.726 405.025 459.9 405.632C460.04 406.281 460.21 406.951 460.39 407.631C460.78 409.019 461.268 410.378 461.85 411.698C461.968 412.023 462.126 412.332 462.32 412.617C462.412 412.73 462.531 412.816 462.666 412.869C462.8 412.921 462.947 412.938 463.09 412.917C463.79 412.856 464.484 412.749 465.17 412.597C466.477 412.326 467.746 411.896 468.95 411.318C469.506 411.095 470.022 410.784 470.48 410.399C470.84 410.039 470.83 409.399 470.48 409.23C469.976 409.151 469.46 409.199 468.98 409.369C468.486 409.48 467.999 409.616 467.52 409.779C466.06 410.266 464.669 410.938 463.38 411.778C462.4 412.298 461.9 412.677 461.88 412.647Z" fill="#4A4566"/>
<path d="M464 443.417C464.368 441.934 464.399 440.387 464.09 438.89C463.84 437.501 463.28 435.892 462.75 434.083C462.064 432.102 461.912 429.975 462.31 427.917C462.54 426.838 462.85 425.818 463.03 424.829C463.204 423.884 463.204 422.916 463.03 421.971C462.69 420.162 461.97 418.583 461.69 417.164C461.403 416.043 461.403 414.867 461.69 413.746C461.775 413.449 461.896 413.164 462.05 412.896C462.17 412.717 462.24 412.627 462.25 412.637C462.26 412.647 462.05 413.036 461.88 413.796C461.683 414.89 461.737 416.014 462.04 417.084C462.35 418.453 463.11 419.992 463.49 421.891C463.676 422.882 463.676 423.898 463.49 424.889C463.31 425.888 463 426.948 462.78 427.997C462.4 429.973 462.534 432.014 463.17 433.923C463.68 435.523 464.094 437.151 464.41 438.8C464.621 439.927 464.621 441.082 464.41 442.208C464.359 442.636 464.22 443.047 464 443.417Z" fill="#4A4566"/>
<path d="M467.65 426.598C466.996 426.141 466.427 425.573 465.97 424.919C463.561 421.872 462.32 418.066 462.47 414.186C462.453 413.387 462.578 412.592 462.84 411.838C462.621 414.494 462.934 417.167 463.76 419.701C464.586 422.236 465.908 424.58 467.65 426.598V426.598Z" fill="#4A4566"/>
<path d="M427.259 375.101C427.181 375.171 427.093 375.232 426.999 375.28L426.229 375.76L423.229 377.539L412.229 384.075C402.909 389.612 390.099 397.337 376.088 406.121C362.078 414.906 349.528 423.111 340.487 429.037L329.797 436.133L326.887 438.051L326.117 438.541C325.944 438.654 325.854 438.704 325.847 438.691L326.087 438.491L326.827 437.961L329.687 435.963C332.167 434.234 335.787 431.755 340.288 428.737C349.288 422.681 361.798 414.466 375.808 405.682C389.819 396.897 402.679 389.212 412.039 383.755C416.719 381.037 420.529 378.848 423.169 377.369L426.169 375.67L426.969 375.24L427.259 375.101Z" fill="#211F54"/>
</svg>
